<svg width="114" height="34" viewBox="0 0 114 34" fill="none" xmlns="http://www.w3.org/2000/svg">
<g clip-path="url(#clip0_951_1620)">
<path d="M66.8386 4.63142V5.05508C66.8386 5.48196 66.7528 5.82217 66.5758 6.06931C66.408 6.31324 66.18 6.49939 65.8982 6.61815C65.6259 6.74011 65.322 6.81393 64.9639 6.84603C64.6096 6.87812 64.274 6.89417 63.9352 6.89417H61.3294C61.0004 6.89417 60.6645 6.8717 60.3323 6.82998C60.0125 6.79146 59.7244 6.70801 59.4809 6.58926C59.2213 6.46088 59.0152 6.27793 58.8667 6.04684C58.715 5.81254 58.6359 5.50121 58.6359 5.12569V4.53192H59.7532V5.10644C59.7532 5.25408 59.7754 5.37604 59.8197 5.47875C59.8609 5.57182 59.9309 5.64885 60.0319 5.71946C60.1332 5.78687 60.276 5.83822 60.4564 5.87352C60.6433 5.91204 60.8839 5.9313 61.1688 5.9313H64.0783C64.4076 5.9313 64.6862 5.91204 64.9078 5.87352C65.1133 5.83822 65.2811 5.78045 65.4046 5.70021C65.5157 5.62318 65.5949 5.52047 65.6421 5.38888C65.6959 5.25087 65.7247 5.06792 65.7247 4.84646C65.7247 4.66351 65.7026 4.50624 65.6582 4.38749C65.6202 4.27836 65.5537 4.19492 65.4584 4.13072C65.3543 4.06011 65.2178 4.01197 65.0437 3.98629C64.8505 3.95741 64.6036 3.94457 64.3281 3.94457H62.5455C61.8455 3.94457 61.2379 3.92531 60.7373 3.8868C60.2373 3.85149 59.8381 3.77125 59.5281 3.63966C59.2048 3.50165 58.9709 3.29303 58.8315 3.01379C58.6954 2.7474 58.6289 2.38472 58.6289 1.93537C58.6289 1.53739 58.6891 1.22285 58.8192 0.972502C58.9455 0.715735 59.145 0.513532 59.4018 0.369101C59.6551 0.22788 59.9682 0.128383 60.3387 0.0770298C60.6999 0.0256766 61.1302 0 61.6181 0H63.6379C64.2239 0 64.7144 0.0353053 65.0975 0.105916C65.4901 0.176527 65.7941 0.285652 66.0315 0.442921C66.2658 0.600191 66.4336 0.799184 66.5318 1.03669C66.6204 1.26136 66.6648 1.53097 66.6648 1.83588V2.1793H65.5503L65.5468 2.06376C65.5436 1.81662 65.5218 1.61442 65.4866 1.46678C65.455 1.3416 65.3758 1.24853 65.2336 1.16829C65.0785 1.08805 64.8312 1.03348 64.5051 1.00139C64.1695 0.975711 63.7012 0.962873 63.074 0.962873H62.0766C61.627 0.962873 61.2439 0.969292 60.9339 0.988549C60.6265 1.01102 60.3922 1.05916 60.2149 1.13298C60.0505 1.20038 59.9305 1.29667 59.8574 1.42505C59.7846 1.55664 59.7437 1.74922 59.7437 1.99957C59.7437 2.1793 59.7627 2.33015 59.8007 2.44891C59.8352 2.55161 59.902 2.63506 60.0002 2.69925C60.111 2.77307 60.2788 2.82764 60.4818 2.85973C60.7094 2.89504 61.001 2.91429 61.349 2.91429H64.1261C65.0693 2.91429 65.7377 3.04589 66.1712 3.31549C66.6138 3.59473 66.8386 4.03765 66.8386 4.63142Z" fill="#938E8C"/>
<path d="M74.195 1.99609L71.3419 7.32078C71.2124 7.5615 71.0826 7.76049 70.9559 7.91134C70.8229 8.07182 70.6583 8.2002 70.4588 8.29007C70.2689 8.37994 70.0251 8.44092 69.7433 8.47302C69.4678 8.5019 69.1163 8.52116 68.6921 8.52758H68.5718V7.65779H68.6921C68.9992 7.65779 69.2588 7.64816 69.4583 7.6289C69.6451 7.61285 69.8066 7.57434 69.9332 7.51015C70.0567 7.45237 70.1612 7.3625 70.2499 7.24696C70.3163 7.15388 70.3889 7.03513 70.4652 6.8907H70.386L67.4766 1.99609H68.6829L70.9752 5.92141L73.0361 1.99609H74.195Z" fill="#938E8C"/>
<path d="M80.9861 5.42031C80.9861 5.78941 80.9038 6.06865 80.7423 6.26764C80.5872 6.46022 80.3874 6.60465 80.1468 6.69772C79.9188 6.78759 79.6592 6.84536 79.3805 6.86462C79.1086 6.88067 78.8458 6.8903 78.5953 6.8903H77.0822C76.7779 6.8903 76.4806 6.88388 76.1953 6.86783C75.904 6.85178 75.6381 6.80043 75.4104 6.71056C75.1666 6.62069 74.9703 6.46663 74.8282 6.25801C74.6822 6.0526 74.6094 5.76053 74.6094 5.39464V4.99665H75.6134V5.34007C75.6134 5.58721 75.683 5.75732 75.8255 5.85682C75.9803 5.96594 76.2593 6.0205 76.6516 6.0205H78.4152C78.7191 6.0205 78.9759 6.01408 79.1846 6.00125C79.3809 5.99162 79.5392 5.96273 79.6503 5.92101C79.7485 5.88249 79.8178 5.82793 79.859 5.75732C79.9036 5.68029 79.9226 5.56474 79.9226 5.41389V5.37538C79.9226 5.2823 79.9128 5.19564 79.8906 5.11861C79.8716 5.05763 79.8365 5.00628 79.7795 4.96776C79.7196 4.91962 79.6212 4.88431 79.4917 4.85543C79.3524 4.82975 79.1624 4.8137 78.9218 4.8137H76.3856C75.7714 4.8137 75.3436 4.71421 75.0808 4.50558C74.8117 4.29375 74.6759 3.94712 74.6759 3.4721V3.2025C74.6759 3.00029 74.7135 2.81735 74.7867 2.65687C74.8658 2.48997 75.0115 2.34875 75.2173 2.23641C75.4136 2.13371 75.6796 2.05347 76.0123 1.9989C76.335 1.94755 76.7624 1.92188 77.2753 1.92188H78.5383C79.0101 1.92188 79.3935 1.95397 79.6782 2.01495C79.9758 2.07914 80.1977 2.1658 80.3589 2.27493C80.527 2.39368 80.6379 2.5349 80.6948 2.69859C80.7487 2.85265 80.774 3.01955 80.774 3.19287V3.55555H79.7703V3.39186C79.7703 3.24101 79.745 3.12547 79.6975 3.04523C79.6503 2.9682 79.5838 2.91363 79.4885 2.87833C79.3809 2.83981 79.2479 2.81414 79.0836 2.80451C78.9091 2.79809 78.7131 2.79167 78.4915 2.79167H77.054C76.7659 2.79167 76.5253 2.8013 76.3448 2.81735C76.1675 2.8366 76.0313 2.86549 75.9367 2.90401C75.8603 2.9361 75.81 2.98104 75.7847 3.0356C75.753 3.09979 75.7372 3.18966 75.7372 3.30199V3.4721C75.7372 3.55555 75.7464 3.62937 75.7657 3.68714C75.7812 3.73529 75.8103 3.7738 75.8607 3.80911C75.918 3.85083 76.0031 3.88293 76.1174 3.90539C76.2409 3.93107 76.4087 3.94391 76.6142 3.94391H78.7891C79.0969 3.94391 79.3847 3.95675 79.6411 3.98242C79.9103 4.00489 80.1446 4.06908 80.3409 4.16858C80.5435 4.27128 80.7018 4.42534 80.8158 4.62434C80.9298 4.82333 80.9861 5.08973 80.9861 5.42031Z" fill="#938E8C"/>
<path d="M87.1939 4.50097V5.12363C87.1939 5.35793 87.1812 5.57939 87.1495 5.78481C87.1179 6.00627 87.0324 6.20205 86.8927 6.36895C86.7566 6.53585 86.5508 6.66744 86.2817 6.75731C86.0189 6.84397 85.6579 6.8889 85.1988 6.8889H84.7492C84.3566 6.8889 84.0242 6.84717 83.7645 6.76052C83.4989 6.67707 83.2896 6.55831 83.1348 6.41067C82.9796 6.26303 82.872 6.08971 82.8115 5.89714C82.7542 5.71419 82.7257 5.51841 82.7257 5.32263V2.86409H81.6523V1.9943H82.7257V0.90625H83.7867V1.9943H87.0511V2.86409H83.7867V5.02414C83.7867 5.22955 83.8057 5.39645 83.8437 5.52483C83.8785 5.64679 83.9355 5.73987 84.0147 5.81048C84.0938 5.8843 84.2046 5.93566 84.3408 5.96775C84.4864 6.00306 84.6701 6.0191 84.8822 6.0191H85.1418C85.4078 6.0191 85.6231 6.00306 85.7814 5.97096C85.9204 5.94528 86.0319 5.89393 86.1044 5.82332C86.1743 5.75592 86.2218 5.65642 86.2472 5.52804C86.2722 5.38361 86.288 5.19424 86.288 4.96315V4.50097H87.1939Z" fill="#938E8C"/>
<path d="M94.6236 4.66285V4.03057C94.6236 3.6069 94.5539 3.25064 94.4174 2.97783C94.2816 2.7018 94.0919 2.48034 93.8513 2.32307C93.6138 2.16901 93.3317 2.0631 93.0056 2.00532C92.6925 1.95076 92.3407 1.92188 91.9674 1.92188H90.6439C90.3463 1.92188 90.0519 1.94113 89.7637 1.97644C89.4661 2.01495 89.1932 2.10161 88.9532 2.23962C88.7091 2.37763 88.5099 2.58305 88.3576 2.84623C88.2088 3.10942 88.1328 3.45926 88.1328 3.89576V4.89073C88.1328 5.33686 88.2056 5.69634 88.3544 5.95631C88.5001 6.2195 88.6964 6.42491 88.9339 6.56934C89.165 6.70735 89.431 6.79722 89.7191 6.83574C89.9974 6.87104 90.2763 6.8903 90.5483 6.8903H92.0425C92.4294 6.8903 92.7808 6.86783 93.0879 6.8229C93.4046 6.77475 93.6769 6.69451 93.8985 6.58539C94.1328 6.47305 94.3136 6.31899 94.4367 6.12642C94.5602 5.93064 94.6236 5.68992 94.6236 5.40427V5.19243H93.5692L93.5629 5.30477C93.5502 5.46204 93.5185 5.584 93.4673 5.67708C93.4172 5.76374 93.3441 5.83114 93.2463 5.87928C93.1351 5.93385 92.9961 5.96915 92.8251 5.98841C92.6447 6.01087 92.4262 6.0205 92.1761 6.0205H91.0457C90.6974 6.0205 90.3967 6.00125 90.1497 5.96273C89.9154 5.92743 89.7254 5.86323 89.5829 5.77337C89.4468 5.68671 89.349 5.57437 89.2885 5.42994C89.2252 5.27588 89.1929 5.07368 89.1929 4.82975V4.66285H94.6236ZM93.5629 3.6069V3.79306H89.2027C89.2248 3.60369 89.2565 3.44642 89.298 3.32125C89.3423 3.18324 89.4183 3.08053 89.5225 3.0035C89.6304 2.92647 89.7821 2.87191 89.9724 2.83981C90.1779 2.80772 90.4438 2.79167 90.7605 2.79167H91.9671C92.2869 2.79167 92.5589 2.81735 92.7713 2.8687C92.9803 2.92005 93.1446 2.98424 93.2589 3.06448C93.3697 3.1383 93.4489 3.22496 93.4932 3.31804C93.5375 3.41433 93.5629 3.51062 93.5629 3.6069Z" fill="#938E8C"/>
<path d="M106.372 3.62295V6.81969H105.311V3.71603C105.311 3.59406 105.292 3.47852 105.257 3.36297C105.225 3.26027 105.162 3.1704 105.067 3.08695C104.962 3.0035 104.817 2.93289 104.63 2.87833C104.437 2.82056 104.18 2.79167 103.867 2.79167H103.284C102.926 2.79167 102.638 2.82698 102.426 2.89117C102.223 2.95215 102.068 3.0356 101.964 3.14151C101.86 3.24101 101.796 3.35656 101.768 3.49457C101.733 3.64221 101.717 3.80911 101.717 3.98242V6.81969H100.656V3.92144C100.656 3.71282 100.634 3.52987 100.593 3.38223C100.555 3.24743 100.489 3.14151 100.387 3.05806C100.286 2.97141 100.134 2.90401 99.9441 2.86228C99.7412 2.81414 99.4818 2.79167 99.1652 2.79167H98.3417C97.8414 2.79167 97.4742 2.88475 97.2465 3.06448C97.0245 3.2378 96.9204 3.48815 96.9204 3.82194V6.81969H95.8594V1.9957H96.8631V2.35838C97.009 2.21716 97.1765 2.11766 97.3602 2.05347C97.6264 1.96681 97.9741 1.92188 98.399 1.92188H99.7317C100.124 1.92188 100.469 1.9957 100.761 2.14334C100.992 2.25888 101.179 2.42578 101.315 2.64403C101.476 2.40331 101.695 2.22999 101.97 2.12087C102.299 1.98928 102.686 1.92188 103.12 1.92188H104.117C104.8 1.92188 105.351 2.0631 105.747 2.33912C106.163 2.62477 106.372 3.05806 106.372 3.62295Z" fill="#938E8C"/>
<path d="M113.999 5.42031C113.999 5.78941 113.917 6.06865 113.758 6.26764C113.6 6.46022 113.4 6.60465 113.163 6.69772C112.932 6.78759 112.675 6.84536 112.393 6.86462C112.124 6.88067 111.861 6.8903 111.611 6.8903H110.098C109.794 6.8903 109.496 6.88388 109.211 6.86783C108.92 6.85178 108.654 6.80043 108.423 6.71056C108.182 6.62069 107.986 6.46663 107.84 6.25801C107.698 6.0526 107.625 5.76053 107.625 5.39464V4.99665H108.629V5.34007C108.629 5.58721 108.695 5.75732 108.838 5.85682C108.992 5.96594 109.271 6.0205 109.667 6.0205H111.428C111.732 6.0205 111.991 6.01408 112.197 6.00125C112.396 5.99162 112.552 5.96273 112.666 5.92101C112.764 5.88249 112.833 5.82793 112.871 5.75732C112.916 5.68029 112.937 5.56474 112.937 5.41389V5.37538C112.937 5.2823 112.928 5.19564 112.906 5.11861C112.887 5.05763 112.849 5.00628 112.795 4.96776C112.732 4.91962 112.637 4.88431 112.507 4.85543C112.368 4.82975 112.178 4.8137 111.937 4.8137H109.397C108.784 4.8137 108.359 4.71421 108.096 4.50558C107.827 4.29375 107.691 3.94712 107.691 3.4721V3.2025C107.691 3.00029 107.729 2.81735 107.802 2.65687C107.881 2.48997 108.027 2.34875 108.233 2.23641C108.429 2.13371 108.695 2.05347 109.027 1.9989C109.351 1.94755 109.775 1.92188 110.291 1.92188H111.554C112.025 1.92188 112.409 1.95397 112.694 2.01495C112.989 2.07914 113.21 2.1658 113.371 2.27493C113.539 2.39368 113.653 2.5349 113.71 2.69859C113.761 2.85265 113.789 3.01955 113.789 3.19287V3.55555H112.786V3.39186C112.786 3.24101 112.76 3.12547 112.713 3.04523C112.666 2.9682 112.596 2.91363 112.504 2.87833C112.396 2.83981 112.26 2.81414 112.099 2.80451C111.925 2.79809 111.728 2.79167 111.506 2.79167H110.069C109.781 2.79167 109.541 2.8013 109.357 2.81735C109.183 2.8366 109.047 2.86549 108.952 2.90401C108.873 2.9361 108.822 2.98104 108.797 3.0356C108.768 3.09979 108.752 3.18966 108.752 3.30199V3.4721C108.752 3.55555 108.762 3.62616 108.781 3.68714C108.794 3.73529 108.825 3.7738 108.876 3.80911C108.93 3.85083 109.018 3.88293 109.129 3.90539C109.253 3.93107 109.421 3.94391 109.63 3.94391H111.805C112.112 3.94391 112.396 3.95675 112.656 3.98242C112.926 4.00489 113.16 4.06908 113.356 4.16858C113.559 4.27128 113.717 4.42534 113.831 4.62434C113.942 4.82333 113.999 5.08973 113.999 5.42031Z" fill="#938E8C"/>
<path d="M0 11.4609H22.963V16.818H6.7431V20.9748H22.2037V26.148H6.7431V33.753H0V11.4609Z" fill="#C1222F"/>
<path d="M35.1136 11.4609H43.8919L55.9806 33.753H48.4782L46.3825 29.812H32.7142L30.7398 33.753H23.207L35.1136 11.4609ZM35.2349 25.0086H43.8615L39.4877 16.6335L35.2349 25.0086Z" fill="#C1222F"/>
<path d="M57.985 26.4562H64.7281C64.7585 28.8271 65.6995 29.0119 67.6439 29.0119H75.9058C77.3331 29.0119 78.7912 28.8579 78.7912 27.1334C78.7912 25.1935 78.0015 25.0706 69.3141 25.0706C59.1692 25.0706 58.0151 23.8387 58.0151 18.3581C58.0151 14.3249 58.3792 11.2148 66.8843 11.2148H76.3C84.0759 11.2148 84.8048 13.8936 84.8048 17.8038V18.5121H78.0617C78.0617 16.8801 77.8793 16.2028 74.7812 16.2028H67.3095C65.7907 16.2028 64.7579 16.7263 64.7579 17.927C64.7579 19.8669 65.5779 19.9282 72.807 19.8977C83.2859 19.8669 85.716 20.5133 85.716 27.0101C85.716 33.0143 83.7112 33.9996 74.7505 33.9996H66.58C60.4442 33.9996 57.9844 32.8294 57.9844 27.9955V26.4562H57.985Z" fill="#C1222F"/>
<path d="M88.2659 11.4609H113.962V17.0032H104.486V33.7534H97.7428V17.0032H88.2656V11.4609H88.2659Z" fill="#C1222F"/>
</g>
<defs>
<clipPath id="clip0_951_1620">
<rect width="114" height="34" fill="white"/>
</clipPath>
</defs>
</svg>
