<svg width="71" height="35" viewBox="0 0 71 35" fill="none" xmlns="http://www.w3.org/2000/svg">
<g clip-path="url(#clip0_728_3826)">
<path d="M0.285156 0.0820312H11.2416C22.7683 0.0820312 26.5342 5.26028 26.5342 15.7627C26.5342 26.2651 23.676 31.825 11.673 31.825H0.288908V0.0820312H0.285156ZM11.7668 26.0256C13.766 26.0256 16.1029 26.0256 17.8658 24.4093C19.1524 23.1746 19.9138 20.7988 19.9138 17.3304V14.3858C19.9138 11.4412 19.58 9.11029 18.2934 7.73341C16.9581 6.35654 14.9588 5.88137 11.718 5.88137H6.81178V26.0294H11.7668V26.0256Z" fill="#006967"/>
<path d="M35.543 0.0820312H46.4995C58.0261 0.0820312 61.792 5.26028 61.792 15.7627C61.792 26.2651 58.9338 31.825 46.9308 31.825H35.5467V0.0820312H35.543ZM47.0246 26.0256C49.0238 26.0256 51.3607 26.0256 53.1236 24.4093C54.4102 23.1746 55.1716 20.7988 55.1716 17.3304V14.3858C55.1716 11.4412 54.8378 9.11029 53.5512 7.73341C52.2159 6.35654 50.2166 5.88137 46.9758 5.88137H42.0696V26.0294H47.0246V26.0256Z" fill="#006967"/>
<path d="M34.08 30.1485C34.2263 30.2869 34.3013 30.4702 34.3013 30.691C34.3013 31.1924 34.02 31.443 33.4611 31.443H32.5534V33.2539C32.5534 33.5495 32.4671 33.7777 32.2983 33.9386C32.1295 34.0995 31.912 34.1818 31.6457 34.1818C31.3793 34.1818 31.1655 34.0995 31.0042 33.9386C30.843 33.7777 30.7604 33.5495 30.7604 33.2539V31.443H24.2113C23.945 31.443 23.7387 31.3682 23.5924 31.2223C23.4461 31.0764 23.3711 30.893 23.3711 30.6723C23.3711 30.4665 23.4536 30.2383 23.6149 29.9876L30.8505 19.545C31.0568 19.2794 31.3231 19.1484 31.6457 19.1484C31.897 19.1484 32.1108 19.2308 32.2871 19.3916C32.4634 19.5525 32.5534 19.7808 32.5534 20.0763V29.9427H33.4611C33.7274 29.9427 33.9337 30.0138 34.08 30.1522V30.1485ZM30.7604 29.9389V22.2801L25.4266 29.9389H30.7604Z" fill="#009A9F"/>
<path d="M64.3061 31.1747C63.5597 30.8866 62.9595 30.505 62.5132 30.0186C62.3481 29.839 62.2656 29.6183 62.2656 29.3489C62.2656 29.1693 62.3106 29.0159 62.3969 28.8812C62.4832 28.7465 62.5882 28.6792 62.7082 28.6792C62.8508 28.6792 63.0046 28.7502 63.1658 28.8887C64.1824 29.8054 65.3376 30.2618 66.6355 30.2618C67.5732 30.2618 68.2934 30.0523 68.796 29.6332C69.2986 29.2142 69.5499 28.6156 69.5499 27.8411C69.5499 27.3958 69.4299 27.0366 69.1899 26.7635C68.9498 26.4904 68.6347 26.2696 68.2409 26.105C67.847 25.9404 67.3181 25.7683 66.6542 25.5887C65.7577 25.3455 65.0263 25.0911 64.4524 24.8254C63.8785 24.5598 63.4172 24.1781 63.0608 23.6805C62.7045 23.1829 62.5282 22.5356 62.5282 21.7349C62.5282 20.9342 62.7045 20.2944 63.0608 19.7033C63.4172 19.1121 63.9123 18.6557 64.5499 18.3301C65.1876 18.0046 65.9153 17.8438 66.733 17.8438C67.4982 17.8438 68.2071 17.9822 68.8673 18.2553C69.5274 18.5284 70.0826 18.9213 70.5289 19.4301C70.7015 19.6322 70.7915 19.8567 70.7915 20.0999C70.7915 20.2795 70.7465 20.4329 70.6602 20.5676C70.5739 20.7023 70.4689 20.7696 70.3489 20.7696C70.2289 20.7696 70.0713 20.6985 69.8725 20.5601C69.3361 20.0512 68.841 19.6958 68.3834 19.49C67.9258 19.2842 67.3744 19.1832 66.7292 19.1832C65.8215 19.1832 65.1201 19.404 64.6175 19.8417C64.1148 20.2795 63.8635 20.8931 63.8635 21.6825C63.8635 22.356 64.0848 22.8611 64.5274 23.1978C64.97 23.5346 65.649 23.8302 66.5642 24.0846C67.5582 24.3652 68.3384 24.6234 68.9048 24.8591C69.4712 25.0948 69.9438 25.4465 70.3189 25.9179C70.694 26.3894 70.8853 27.0179 70.8853 27.8074C70.8853 28.5968 70.709 29.2179 70.3526 29.7904C70.0001 30.3628 69.4974 30.8081 68.856 31.1261C68.2109 31.4441 67.4757 31.605 66.6467 31.605C65.8178 31.605 65.0451 31.4628 64.2986 31.1747H64.3061Z" fill="#009A9F"/>
</g>
<defs>
<clipPath id="clip0_728_3826">
<rect width="70.8927" height="34.4219" fill="white"/>
</clipPath>
</defs>
</svg>
