<svg width="94" height="47" viewBox="0 0 94 47" fill="none" xmlns="http://www.w3.org/2000/svg">
<g clip-path="url(#clip0_915_1000)">
<path d="M0.378906 0.539062H14.9066C30.1903 0.539062 35.1838 7.40515 35.1838 21.3308C35.1838 35.2565 31.3939 42.6286 15.4786 42.6286H0.383881V0.539062H0.378906ZM15.6029 34.9389C18.2538 34.9389 21.3523 34.9389 23.6899 32.7958C25.3958 31.1586 26.4055 28.0084 26.4055 23.4095V19.5051C26.4055 15.6008 25.9628 12.5101 24.2569 10.6844C22.4863 8.85873 19.8354 8.22868 15.5383 8.22868H9.03288V34.9439H15.6029V34.9389Z" fill="white"/>
<path d="M47.1289 0.539062H61.6566C76.9403 0.539062 81.9338 7.40515 81.9338 21.3308C81.9338 35.2565 78.1439 42.6286 62.2286 42.6286H47.1339V0.539062H47.1289ZM62.3529 34.9389C65.0038 34.9389 68.1024 34.9389 70.4399 32.7958C72.1458 31.1586 73.1555 28.0084 73.1555 23.4095V19.5051C73.1555 15.6008 72.7128 12.5101 71.0069 10.6844C69.2363 8.85873 66.5854 8.22868 62.2883 8.22868H55.7829V34.9439H62.3529V34.9389Z" fill="white"/>
<path d="M45.1878 40.4058C45.3817 40.5893 45.4812 40.8324 45.4812 41.1251C45.4812 41.7899 45.1082 42.1223 44.3671 42.1223H43.1635V44.5235C43.1635 44.9154 43.0491 45.218 42.8253 45.4313C42.6015 45.6447 42.313 45.7538 41.9599 45.7538C41.6068 45.7538 41.3233 45.6447 41.1094 45.4313C40.8956 45.218 40.7862 44.9154 40.7862 44.5235V42.1223H32.1024C31.7492 42.1223 31.4757 42.0231 31.2817 41.8296C31.0878 41.6361 30.9883 41.393 30.9883 41.1003C30.9883 40.8275 31.0977 40.5249 31.3116 40.1925L40.9055 26.3462C41.1791 25.9939 41.5322 25.8203 41.9599 25.8203C42.2932 25.8203 42.5766 25.9295 42.8104 26.1428C43.0442 26.3561 43.1635 26.6587 43.1635 27.0507V40.1329H44.3671C44.7202 40.1329 44.9938 40.2272 45.1878 40.4107V40.4058ZM40.7862 40.128V29.9727L33.7138 40.128H40.7862Z" fill="white"/>
<path d="M85.2681 41.766C84.2784 41.384 83.4826 40.878 82.8908 40.2331C82.6719 39.995 82.5625 39.7023 82.5625 39.3451C82.5625 39.1069 82.6222 38.9035 82.7366 38.7249C82.851 38.5463 82.9902 38.457 83.1494 38.457C83.3384 38.457 83.5423 38.5513 83.7561 38.7348C85.104 39.9503 86.6358 40.5556 88.3567 40.5556C89.6001 40.5556 90.555 40.2777 91.2214 39.7221C91.8879 39.1665 92.2211 38.3727 92.2211 37.3458C92.2211 36.7554 92.062 36.2791 91.7437 35.917C91.4254 35.5548 91.0076 35.2621 90.4854 35.0438C89.9631 34.8255 89.2619 34.5973 88.3815 34.3592C87.1929 34.0367 86.223 33.6994 85.4621 33.3472C84.7011 32.9949 84.0894 32.4889 83.6169 31.8291C83.1444 31.1693 82.9106 30.311 82.9106 29.2493C82.9106 28.1877 83.1444 27.3393 83.6169 26.5555C84.0894 25.7716 84.7459 25.1664 85.5914 24.7348C86.4369 24.3032 87.4018 24.0898 88.486 24.0898C89.5006 24.0898 90.4406 24.2734 91.3159 24.6356C92.1913 24.9977 92.9274 25.5186 93.5192 26.1933C93.748 26.4612 93.8674 26.7589 93.8674 27.0814C93.8674 27.3195 93.8077 27.5229 93.6933 27.7015C93.5789 27.8801 93.4396 27.9694 93.2805 27.9694C93.1213 27.9694 92.9124 27.8751 92.6488 27.6916C91.9376 27.0169 91.2811 26.5456 90.6744 26.2727C90.0676 25.9998 89.3365 25.8659 88.481 25.8659C87.2774 25.8659 86.3474 26.1586 85.6809 26.739C85.0145 27.3195 84.6812 28.1331 84.6812 29.1799C84.6812 30.0729 84.9747 30.7426 85.5615 31.1891C86.1484 31.6356 87.0486 32.0275 88.2622 32.3649C89.5802 32.7369 90.6147 33.0793 91.3657 33.3918C92.1167 33.7044 92.7433 34.1707 93.2407 34.7958C93.7381 35.4209 93.9917 36.2543 93.9917 37.3011C93.9917 38.3479 93.7579 39.1714 93.2855 39.9305C92.8179 40.6895 92.1515 41.2799 91.301 41.7016C90.4456 42.1232 89.4707 42.3366 88.3716 42.3366C87.2724 42.3366 86.2479 42.148 85.2582 41.766H85.2681Z" fill="white"/>
</g>
<defs>
<clipPath id="clip0_915_1000">
<rect width="94" height="45.6416" fill="white" transform="translate(0 0.429688)"/>
</clipPath>
</defs>
</svg>
