<svg width="22" height="22" viewBox="0 0 22 22" fill="none" xmlns="http://www.w3.org/2000/svg">
<path d="M8.37431 5.12437C8.48946 5.1237 8.60362 5.14577 8.71022 5.18932C8.81683 5.23286 8.9138 5.29702 8.99556 5.37812L14.2456 10.6281C14.4085 10.7921 14.5 11.0138 14.5 11.245C14.5 11.4762 14.4085 11.6979 14.2456 11.8619L8.99556 17.1119C8.82817 17.2552 8.61285 17.3301 8.39263 17.3216C8.17242 17.3131 7.96352 17.2218 7.80769 17.066C7.65186 16.9102 7.56056 16.7013 7.55206 16.481C7.54355 16.2608 7.61846 16.0455 7.76181 15.8781L12.3906 11.2494L7.76181 6.62061C7.63894 6.49875 7.55496 6.34319 7.5205 6.17361C7.48604 6.00402 7.50264 5.82802 7.5682 5.66787C7.63376 5.50772 7.74533 5.3706 7.88882 5.27386C8.03231 5.17711 8.20126 5.12509 8.37431 5.12437Z" fill="#F4F4F4"/>
</svg>
