<svg width="32" height="32" viewBox="0 0 32 32" fill="none" xmlns="http://www.w3.org/2000/svg">
<g clip-path="url(#clip0_728_3835)">
<path d="M15.513 0.421875C6.9591 0.421875 0 7.38098 0 15.9349C0 24.4888 6.9591 31.4479 15.513 31.4479C24.0669 31.4479 31.026 24.4888 31.026 15.9349C31.026 7.38098 24.0669 0.421875 15.513 0.421875ZM15.513 29.9936C7.76105 29.9936 1.45434 23.6868 1.45434 15.9349C1.45434 8.18293 7.76105 1.87622 15.513 1.87622C23.265 1.87622 29.5717 8.18293 29.5717 15.9349C29.5717 23.6868 23.265 29.9936 15.513 29.9936ZM23.6262 18.7566L20.7763 17.1113C20.34 16.8594 19.8308 16.7926 19.3427 16.9234C18.8545 17.0541 18.4469 17.3665 18.195 17.8029C18.0488 18.0562 17.7928 18.3747 17.4034 18.4544C17.0481 18.527 16.7345 18.4565 16.4446 18.239C15.3736 17.4352 14.0129 16.0744 13.209 15.0033C12.9914 14.7134 12.9209 14.3998 12.9936 14.0447C13.0732 13.6551 13.3918 13.3991 13.645 13.253C14.5474 12.7319 14.8576 11.5739 14.3367 10.6716L12.6913 7.82164C12.2201 7.00551 11.2413 6.6632 10.3643 7.00757L10.3302 7.02096C8.96828 7.55562 7.97242 7.96592 7.56059 8.37775C6.81251 9.12589 6.0548 10.518 6.69356 12.9019C7.93418 17.5321 13.9158 23.5137 18.546 24.7544C19.1747 24.9229 19.7344 24.9942 20.2316 24.9942C21.6194 24.9942 22.5194 24.4382 23.0703 23.8874C23.482 23.4756 23.8922 22.4799 24.4268 21.1184L24.4404 21.0838C24.7847 20.2066 24.4423 19.2279 23.6262 18.7566ZM23.0865 20.5522L23.0729 20.5869C22.815 21.2438 22.2784 22.6106 22.0417 22.859C21.3475 23.5532 20.298 23.7182 18.9223 23.3496C14.7736 22.238 9.20976 16.6741 8.09816 12.5254C7.72954 11.1498 7.89461 10.1002 8.58809 9.40682C8.83721 9.1694 10.2044 8.63268 10.8614 8.37478L10.8956 8.36132C10.9501 8.33987 11.0056 8.32969 11.0599 8.32969C11.2101 8.32969 11.3506 8.40859 11.4316 8.54887L13.077 11.3987C13.197 11.6066 13.1255 11.8734 12.9177 11.9934C12.1944 12.4109 11.7153 13.036 11.5686 13.7532C11.4122 14.5179 11.5772 15.252 12.0456 15.8762C12.9357 17.0623 14.3857 18.5122 15.5716 19.4022C16.1958 19.8706 16.9299 20.0355 17.6946 19.8792C18.4119 19.7325 19.0369 19.2533 19.4545 18.53C19.5122 18.4301 19.6061 18.3584 19.719 18.3281C19.8319 18.298 19.9491 18.313 20.0492 18.3707L22.899 20.0161C23.09 20.1265 23.1672 20.3469 23.0865 20.5522Z" fill="#009A9F"/>
</g>
<defs>
<clipPath id="clip0_728_3835">
<rect width="31.026" height="31.026" fill="white" transform="translate(0 0.421875)"/>
</clipPath>
</defs>
</svg>
