<svg width="27" height="37" viewBox="0 0 27 37" fill="none" xmlns="http://www.w3.org/2000/svg">
<path d="M4 7.5L5.5 6L23 17.5V18.5V19.5L5.5 31L4.5 30.5L4 29.5L8 18.5L4 7.5Z" fill="#DEEFF0"/>
<path d="M5.36208 5.49997C5.2306 5.49997 5.09817 5.51302 4.96629 5.53938C4.437 5.6452 3.98094 5.95288 3.6822 6.40575C3.29383 6.9945 3.23624 7.72838 3.52737 8.37147L7.60785 18.5009L3.49395 28.713C3.07912 29.7479 3.57601 30.9307 4.60132 31.3504C5.22024 31.6037 5.92091 31.5323 6.47574 31.1593L22.7635 20.1869C23.6838 19.567 23.9338 18.3068 23.321 17.3778C23.1665 17.1438 22.97 16.9483 22.7368 16.7967L6.4762 5.84259C6.14131 5.61697 5.75603 5.49997 5.36208 5.49997ZM5.35999 30.4841C5.23365 30.4841 5.10675 30.4598 4.98604 30.4104C4.47524 30.2014 4.22865 29.6098 4.43634 29.0916L8.62636 18.6905C8.67541 18.5688 8.67541 18.4328 8.62636 18.311L4.46513 7.98132C4.46204 7.97376 4.45884 7.96624 4.45544 7.95882C4.30594 7.63393 4.33377 7.26242 4.52993 6.965C4.67826 6.74019 4.90398 6.58754 5.16545 6.53529C5.42449 6.48349 5.6886 6.53661 5.90873 6.68489L22.1729 17.6414C22.1756 17.6433 22.1783 17.6451 22.181 17.6468C22.2974 17.722 22.3957 17.8197 22.4732 17.9372C22.7806 18.4032 22.6563 19.0346 22.196 19.3447L5.90878 30.3167C5.74394 30.4275 5.5527 30.4841 5.35999 30.4841Z" fill="#009A9F"/>
<path fill-rule="evenodd" clip-rule="evenodd" d="M8.66016 11.5996L18.9044 18.5008L8.66016 25.4019L11.4402 18.5008L8.66016 11.5996Z" fill="#009A9F"/>
</svg>
