<svg width="32" height="32" viewBox="0 0 32 32" fill="none" xmlns="http://www.w3.org/2000/svg">
<g clip-path="url(#clip0_728_3841)">
<path d="M15.513 0.0305176C6.9591 0.0305176 0 6.98962 0 15.5435C0 24.0974 6.9591 31.0565 15.513 31.0565C24.0669 31.0565 31.026 24.0974 31.026 15.5435C31.026 6.98962 24.0669 0.0305176 15.513 0.0305176ZM15.513 29.6022C7.76105 29.6022 1.45434 23.2955 1.45434 15.5435C1.45434 7.79157 7.76105 1.48486 15.513 1.48486C23.265 1.48486 29.5717 7.79157 29.5717 15.5435C29.5717 23.2955 23.265 29.6022 15.513 29.6022ZM22.8036 9.15047H8.22232C7.24706 9.15047 6.45359 9.94394 6.45359 10.9192V20.1679C6.45359 21.1432 7.247 21.9366 8.22232 21.9366H22.8036C23.7789 21.9366 24.5724 21.1432 24.5724 20.1679V10.9192C24.5724 9.94394 23.7789 9.15047 22.8036 9.15047ZM21.7075 10.6048L15.513 15.524L9.31847 10.6048H21.7075ZM22.8036 20.4822H8.22232C8.04901 20.4822 7.90794 20.3412 7.90794 20.1679V11.3418L15.0608 17.0219C15.1932 17.1271 15.3531 17.1797 15.513 17.1797C15.6728 17.1797 15.8328 17.1271 15.9651 17.0219L23.118 11.3418V20.1679C23.118 20.3412 22.977 20.4822 22.8036 20.4822Z" fill="#009A9F"/>
</g>
<defs>
<clipPath id="clip0_728_3841">
<rect width="31.026" height="31.026" fill="white" transform="translate(0 0.0305176)"/>
</clipPath>
</defs>
</svg>
