<svg width="26" height="22" viewBox="0 0 26 22" fill="none" xmlns="http://www.w3.org/2000/svg">
<path d="M13 17.875C5.80308 17.875 2.23495 11.6009 2.08663 11.334C1.97113 11.1262 1.97113 10.8737 2.08663 10.6659C2.23495 10.3991 5.80308 4.125 13 4.125C20.1969 4.125 23.765 10.3991 23.9134 10.666C24.0289 10.8738 24.0289 11.1263 23.9134 11.3341C23.765 11.6009 20.1969 17.875 13 17.875ZM3.49652 10.999C4.3143 12.2384 7.52509 16.5 13 16.5C18.4923 16.5 21.6888 12.2418 22.5035 11.001C21.6857 9.76164 18.4749 5.5 13 5.5C7.50773 5.5 4.3112 9.7582 3.49652 10.999ZM13 15.125C10.7254 15.125 8.875 13.2746 8.875 11C8.875 8.72541 10.7254 6.875 13 6.875C15.2746 6.875 17.125 8.72541 17.125 11C17.125 13.2746 15.2746 15.125 13 15.125ZM13 8.25C11.4837 8.25 10.25 9.48372 10.25 11C10.25 12.5163 11.4837 13.75 13 13.75C14.5163 13.75 15.75 12.5163 15.75 11C15.75 9.48372 14.5163 8.25 13 8.25Z" fill="#2E2E27" stroke="#2E2E27" stroke-width="0.5"/>
</svg>
