<svg width="124" height="124" viewBox="0 0 124 124" fill="none" xmlns="http://www.w3.org/2000/svg">
<g style="mix-blend-mode:multiply" opacity="0.16" clip-path="url(#clip0_728_6123)">
<path d="M102.828 65.6328C104.328 69.8612 108.366 72.8984 113.102 72.8984C119.111 72.8984 124 68.0094 124 62C124 55.9906 119.111 51.1016 113.102 51.1016C108.366 51.1016 104.328 54.1388 102.828 58.3672H75.0781V48.6797H98.5703C99.4202 48.6797 100.243 48.3818 100.896 47.8376L107.537 42.3034C109.167 43.2755 111.07 43.8359 113.102 43.8359C119.111 43.8359 124 38.9469 124 32.9375C124 26.9281 119.111 22.0391 113.102 22.0391C107.092 22.0391 102.203 26.9281 102.203 32.9375C102.203 34.2686 102.444 35.5442 102.883 36.7243L97.255 41.4141H75.0781V14.7734H85.8748C87.3745 19.0018 91.4125 22.0391 96.1484 22.0391C102.158 22.0391 107.047 17.15 107.047 11.1406C107.047 5.13123 102.158 0.242188 96.1484 0.242188C91.4125 0.242188 87.3745 3.27946 85.8748 7.50781H75.0781V3.875C75.0781 1.86872 73.4516 0.242188 71.4453 0.242188H52.0703C50.064 0.242188 48.4375 1.86872 48.4375 3.875V9.17237C43.2607 10.4661 38.3606 12.4899 33.8091 15.2135L30.0761 11.4804C28.6573 10.0617 26.3573 10.0617 24.9385 11.4804L11.2382 25.1805C9.81949 26.599 9.81949 28.8993 11.2382 30.318L14.9713 34.0511C12.2477 38.6023 10.2242 43.5024 8.93018 48.6797H3.63281C1.62653 48.6797 0 50.3062 0 52.3125V71.6875C0 73.6938 1.62653 75.3203 3.63281 75.3203H8.93018C10.2242 80.4973 12.2477 85.3972 14.9713 89.9487L11.2382 93.6818C10.557 94.3628 10.1741 95.287 10.1741 96.2504C10.1741 97.2138 10.557 98.138 11.2382 98.819L24.9385 112.519C26.357 113.937 28.6573 113.937 30.0761 112.519L33.8091 108.786C38.3603 111.51 43.2605 113.534 48.4375 114.827V120.125C48.4375 122.131 50.064 123.758 52.0703 123.758H71.4453C73.4516 123.758 75.0781 122.131 75.0781 120.125V116.492H85.8748C87.3745 120.721 91.4125 123.758 96.1484 123.758C102.158 123.758 107.047 118.869 107.047 112.859C107.047 106.85 102.158 101.961 96.1484 101.961C91.4125 101.961 87.3745 104.998 85.8748 109.227H75.0781V82.5859H97.255L102.883 87.2757C102.444 88.4558 102.203 89.7314 102.203 91.0625C102.203 97.0719 107.092 101.961 113.102 101.961C119.111 101.961 124 97.0719 124 91.0625C124 85.0531 119.111 80.1641 113.102 80.1641C111.07 80.1641 109.167 80.7245 107.537 81.6966L100.896 76.1624C100.243 75.6182 99.4202 75.3203 98.5703 75.3203H75.0781V65.6328H102.828ZM113.102 58.3672C115.105 58.3672 116.734 59.9969 116.734 62C116.734 64.0031 115.105 65.6328 113.102 65.6328C111.098 65.6328 109.469 64.0031 109.469 62C109.469 59.9969 111.098 58.3672 113.102 58.3672ZM113.102 29.3047C115.105 29.3047 116.734 30.9344 116.734 32.9375C116.734 34.9406 115.105 36.5703 113.102 36.5703C111.098 36.5703 109.469 34.9406 109.469 32.9375C109.469 30.9344 111.098 29.3047 113.102 29.3047ZM96.1484 7.50781C98.1516 7.50781 99.7812 9.13749 99.7812 11.1406C99.7812 13.1438 98.1516 14.7734 96.1484 14.7734C94.1453 14.7734 92.5156 13.1438 92.5156 11.1406C92.5156 9.13749 94.1453 7.50781 96.1484 7.50781ZM96.1484 109.227C98.1516 109.227 99.7812 110.856 99.7812 112.859C99.7812 114.863 98.1516 116.492 96.1484 116.492C94.1453 116.492 92.5156 114.863 92.5156 112.859C92.5156 110.856 94.1453 109.227 96.1484 109.227ZM113.102 87.4297C115.105 87.4297 116.734 89.0594 116.734 91.0625C116.734 93.0656 115.105 94.6953 113.102 94.6953C111.098 94.6953 109.469 93.0656 109.469 91.0625C109.469 89.0594 111.098 87.4297 113.102 87.4297ZM67.8125 86.6733C65.8115 87.1727 63.7842 87.4297 61.7578 87.4297C47.7359 87.4297 36.3281 76.0219 36.3281 62C36.3281 47.9781 47.7359 36.5703 61.7578 36.5703C63.7842 36.5703 65.8115 36.8275 67.8125 37.3267V86.6733ZM55.7031 116.492V111.912C55.7031 110.171 54.468 108.675 52.7586 108.345C46.461 107.129 40.5989 104.708 35.3359 101.148C33.8939 100.173 31.9629 100.357 30.7319 101.588L27.5074 104.813L18.9449 96.2504L22.1694 93.0259C23.4004 91.7951 23.5849 89.8639 22.6097 88.4219C19.05 83.1587 16.6286 77.2966 15.4128 70.999C15.0827 69.2898 13.5867 68.0547 11.8459 68.0547H7.26562V55.9453H11.8459C13.5867 55.9453 15.083 54.7102 15.4128 53.001C16.6286 46.7027 19.05 40.8408 22.6094 35.5781C23.5847 34.1363 23.4002 32.2051 22.1691 30.9741L18.9446 27.7496L27.5072 19.1871L30.7317 22.4115C31.9625 23.6426 33.8937 23.8274 35.3356 22.8518C40.5991 19.2919 46.461 16.8708 52.7584 15.6552C54.468 15.3251 55.7031 13.8291 55.7031 12.0881V7.50781H67.8125V29.885C65.8084 29.4999 63.7847 29.3047 61.7578 29.3047C43.7296 29.3047 29.0625 43.9718 29.0625 62C29.0625 80.0282 43.7296 94.6953 61.7578 94.6953C63.7847 94.6953 65.8084 94.5004 67.8125 94.115V116.492H55.7031Z" fill="black"/>
</g>
<defs>
<clipPath id="clip0_728_6123">
<rect width="124" height="124" fill="white"/>
</clipPath>
</defs>
</svg>
