<svg width="12" height="12" viewBox="0 0 12 12" fill="none" xmlns="http://www.w3.org/2000/svg">
<path d="M6.00078 0.625977C7.42626 0.625977 8.79336 1.19225 9.80133 2.20022C10.8093 3.20819 11.3756 4.57529 11.3756 6.00078C11.3756 6.70661 11.2366 7.40552 10.9664 8.05762C10.6963 8.70972 10.3004 9.30224 9.80133 9.80133C9.30224 10.3004 8.70972 10.6963 8.05762 10.9664C7.40552 11.2366 6.70661 11.3756 6.00078 11.3756C4.57529 11.3756 3.20819 10.8093 2.20022 9.80133C1.19225 8.79336 0.625977 7.42626 0.625977 6.00078C0.625977 4.57529 1.19225 3.20819 2.20022 2.20022C3.20819 1.19225 4.57529 0.625977 6.00078 0.625977ZM6.00078 10.6262C6.91545 10.6262 7.80958 10.355 8.57012 9.8468C9.33065 9.33865 9.92342 8.61639 10.2735 7.77135C10.6235 6.92631 10.7152 5.99645 10.5368 5.09934C10.3584 4.20224 9.91795 3.37818 9.27122 2.73136C8.62449 2.08455 7.80048 1.64403 6.9034 1.46551C6.00631 1.287 5.07644 1.3785 4.23136 1.72845C3.38628 2.07839 2.66394 2.67107 2.15569 3.43154C1.64744 4.192 1.3761 5.0861 1.37598 6.00078C1.37725 7.22702 1.86489 8.40268 2.73192 9.26981C3.59894 10.137 4.77454 10.6247 6.00078 10.6262Z" fill="#333333"/>
<path d="M4.50007 10.875H3.99967C3.90021 10.8764 3.80426 10.8383 3.73292 10.769C3.66158 10.6997 3.6207 10.6049 3.61927 10.5054C3.61783 10.4059 3.65597 10.31 3.72528 10.2387C3.7946 10.1673 3.88941 10.1264 3.98887 10.125C3.19512 7.43228 3.19512 4.56772 3.98887 1.875C3.89129 1.87219 3.79866 1.83144 3.73066 1.76142C3.66265 1.69139 3.62463 1.59761 3.62467 1.5C3.62467 1.40054 3.66418 1.30516 3.7345 1.23483C3.80483 1.16451 3.90021 1.125 3.99967 1.125H4.49947C4.55891 1.12503 4.61749 1.13919 4.67038 1.16632C4.72327 1.19344 4.76895 1.23275 4.80367 1.281C4.83841 1.32919 4.86121 1.38495 4.87018 1.44368C4.87915 1.50241 4.87404 1.56243 4.85527 1.6188C3.91253 4.46271 3.91253 7.53489 4.85527 10.3788C4.8741 10.4352 4.87926 10.4952 4.87031 10.554C4.86137 10.6128 4.83858 10.6686 4.80383 10.7168C4.76908 10.7651 4.72336 10.8043 4.67044 10.8314C4.61752 10.8585 4.55892 10.8726 4.49947 10.8726L4.50007 10.875Z" fill="#333333"/>
<path d="M7.49999 10.8751C7.45921 10.8753 7.41868 10.8688 7.37999 10.8559C7.33326 10.8404 7.29006 10.8157 7.25285 10.7834C7.21565 10.7511 7.18517 10.7118 7.16316 10.6677C7.14115 10.6237 7.12804 10.5757 7.12458 10.5265C7.12112 10.4774 7.12738 10.4281 7.14299 10.3813C8.08573 7.53743 8.08573 4.46525 7.14299 1.62134C7.12704 1.57439 7.12055 1.52475 7.12391 1.47528C7.12726 1.42581 7.1404 1.37749 7.16255 1.33313C7.1847 1.28877 7.21543 1.24924 7.25296 1.21684C7.29049 1.18443 7.33408 1.15979 7.38119 1.14434C7.42792 1.12872 7.47726 1.12247 7.5264 1.12593C7.57554 1.12939 7.62352 1.1425 7.6676 1.16451C7.71167 1.18651 7.75098 1.21699 7.78327 1.2542C7.81556 1.2914 7.8402 1.33461 7.85579 1.38134C8.35356 2.87077 8.60704 4.43093 8.60639 6.00134C8.60704 7.57174 8.35356 9.13191 7.85579 10.6213C7.83046 10.6955 7.78251 10.7599 7.71869 10.8054C7.65487 10.851 7.57839 10.8753 7.49999 10.8751Z" fill="#333333"/>
<path d="M6 8.60641C4.60354 8.60675 3.21429 8.40609 1.875 8.01061C1.87219 8.10819 1.83144 8.20082 1.76142 8.26882C1.69139 8.33683 1.59761 8.37485 1.5 8.37481C1.40054 8.37481 1.30516 8.3353 1.23483 8.26498C1.16451 8.19465 1.125 8.09927 1.125 7.99981V7.50001C1.12503 7.44057 1.13919 7.38199 1.16632 7.3291C1.19344 7.27621 1.23275 7.23053 1.281 7.19581C1.32919 7.16107 1.38495 7.13827 1.44368 7.1293C1.50241 7.12033 1.56243 7.12544 1.6188 7.14421C4.46271 8.08695 7.53489 8.08695 10.3788 7.14421C10.4352 7.12544 10.4952 7.12033 10.5539 7.1293C10.6126 7.13827 10.6684 7.16107 10.7166 7.19581C10.7648 7.23053 10.8042 7.27621 10.8313 7.3291C10.8584 7.38199 10.8726 7.44057 10.8726 7.50001V7.99981C10.8733 8.04906 10.8643 8.09796 10.8461 8.14373C10.8279 8.1895 10.8009 8.23124 10.7666 8.26656C10.7323 8.30188 10.6913 8.3301 10.6461 8.3496C10.6009 8.3691 10.5522 8.3795 10.503 8.38021C10.4035 8.38165 10.3076 8.34351 10.2363 8.2742C10.1649 8.20488 10.124 8.11007 10.1226 8.01061C8.78408 8.40586 7.39566 8.60651 6 8.60641Z" fill="#333333"/>
<path d="M10.4992 4.87593C10.4585 4.87611 10.4179 4.86962 10.3792 4.85673C7.53533 3.91399 4.46315 3.91399 1.61924 4.85673C1.57252 4.87235 1.52317 4.8786 1.47403 4.87514C1.42489 4.87168 1.37691 4.85857 1.33284 4.83656C1.28876 4.81455 1.24946 4.78408 1.21716 4.74687C1.18487 4.70967 1.16023 4.66646 1.14464 4.61973C1.12891 4.57305 1.12252 4.52372 1.12586 4.47457C1.1292 4.42542 1.14218 4.3774 1.16408 4.33327C1.18598 4.28914 1.21636 4.24976 1.25348 4.21738C1.29061 4.18499 1.33375 4.16024 1.38044 4.14453C4.37906 3.14323 7.62182 3.14323 10.6204 4.14453C10.7051 4.1727 10.7769 4.23011 10.823 4.30646C10.8691 4.3828 10.8865 4.47308 10.872 4.5611C10.8576 4.64911 10.8122 4.72909 10.7441 4.78668C10.676 4.84427 10.5896 4.8757 10.5004 4.87533L10.4992 4.87593Z" fill="#333333"/>
</svg>
