<svg width="173" height="173" viewBox="0 0 173 173" fill="none" xmlns="http://www.w3.org/2000/svg">
<g style="mix-blend-mode:multiply" opacity="0.16">
<path d="M172.955 94.1658L162.141 28.2692C161.965 27.1934 161.28 26.2689 160.303 25.7864C159.326 25.3043 158.175 25.3228 157.214 25.8361L130.398 40.1714C128.878 40.9843 128.213 42.8117 128.856 44.4119L130.599 48.748C125.648 50.9011 119.988 51.0785 114.901 49.2079C105.601 45.7885 95.3537 46.3335 86.5003 50.6598C77.6472 46.3338 67.3997 45.7891 58.0997 49.2079C53.0124 51.0781 47.3524 50.9007 42.401 48.7477L44.1442 44.4116C44.7872 42.8117 44.1229 40.984 42.602 40.171L15.7861 25.8364C14.8252 25.3225 13.6747 25.3043 12.6975 25.7868C11.72 26.2693 11.0354 27.1937 10.859 28.2696L0.0448886 94.1658C-0.219003 95.7738 0.702421 97.3406 2.23542 97.892L17.0005 103.204C17.3779 103.339 17.7638 103.404 18.1439 103.404C19.486 103.404 20.7507 102.599 21.2792 101.285L22.9916 97.0253L30.8371 103.239C31.0337 105.833 32.1187 108.373 34.0987 110.353C36.2717 112.526 39.1177 113.622 41.9715 113.647C41.9965 116.501 43.0937 119.347 45.2663 121.52C47.4393 123.693 50.2853 124.79 53.1391 124.815C53.1641 127.669 54.2613 130.515 56.4342 132.688C58.6325 134.886 61.5198 135.985 64.4071 135.985C65.0433 135.985 65.6789 135.929 66.3077 135.822C66.6699 138.085 67.7187 140.258 69.4592 141.998C71.6575 144.197 74.5447 145.296 77.4323 145.296C79.5911 145.296 81.7499 144.681 83.6208 143.452L84.4341 144.265C86.6324 146.464 89.5197 147.562 92.4073 147.562C95.2945 147.562 98.1821 146.464 100.38 144.265C101.754 142.892 102.698 141.25 103.213 139.507C104.566 140.069 106.029 140.363 107.538 140.363C110.55 140.363 113.381 139.19 115.511 137.061C117.282 135.29 118.338 133.071 118.683 130.766C119.257 130.854 119.836 130.901 120.416 130.901C123.304 130.901 126.191 129.802 128.389 127.604C130.495 125.498 131.664 122.705 131.69 119.731C134.542 119.704 137.386 118.608 139.557 116.437C142.898 113.095 143.698 108.163 141.96 104.057L150.919 99.2902L151.721 101.286C152.249 102.6 153.514 103.405 154.856 103.405C155.236 103.405 155.623 103.34 156 103.205L170.765 97.8927C172.297 97.3409 173.219 95.7738 172.955 94.1658ZM16.224 95.7427L7.16895 92.4851L16.763 34.0215L36.7437 44.7025L16.224 95.7427ZM45.2656 105.575C43.5042 107.335 40.6389 107.335 38.8778 105.574C37.1164 103.812 37.1164 100.947 38.8778 99.1851L42.5639 95.4994C43.417 94.6462 44.5517 94.1762 45.7583 94.1762C46.9649 94.1762 48.0995 94.6462 48.9527 95.4994C50.7141 97.2608 50.7141 100.127 48.9527 101.888L45.2666 105.574C45.2663 105.574 45.266 105.575 45.2656 105.575ZM56.4342 116.741C54.6728 118.504 51.8065 118.504 50.0451 116.741C48.2843 114.981 48.284 112.116 50.043 110.355C50.0437 110.354 50.0447 110.354 50.0454 110.353L58.3271 102.071C59.1802 101.218 60.3149 100.748 61.5215 100.748C62.7281 100.748 63.8627 101.218 64.7159 102.071C66.4773 103.832 66.4773 106.698 64.7159 108.46L56.4342 116.741ZM67.6021 127.909C65.8411 129.67 62.9744 129.672 61.213 127.909C59.4512 126.148 59.4512 123.282 61.213 121.52L69.4947 113.239C70.3752 112.358 71.5321 111.917 72.6891 111.917C73.846 111.917 75.0029 112.358 75.8838 113.239C76.7373 114.092 77.2073 115.226 77.2073 116.433C77.2073 117.64 76.7373 118.774 75.8841 119.627L67.6021 127.909ZM83.5451 134.301L80.6268 137.22C78.8653 138.981 75.999 138.981 74.2376 137.22C72.4762 135.459 72.4762 132.593 74.2369 130.831L77.1556 127.912C78.0362 127.032 79.1931 126.591 80.35 126.591C81.507 126.591 82.6639 127.032 83.5448 127.912C85.3065 129.674 85.3065 132.54 83.5451 134.301ZM95.6017 139.486C93.8406 141.248 90.9743 141.248 89.2125 139.486L88.5587 138.832C90.5374 136.733 91.6257 134.004 91.6257 131.107C91.6257 130.36 91.5531 129.625 91.4122 128.908L95.6013 133.097C97.3634 134.858 97.3634 137.725 95.6017 139.486ZM134.779 111.657C133.017 113.419 130.151 113.419 128.389 111.657L106.548 89.8158C105.228 88.497 103.089 88.4967 101.769 89.8158C100.45 91.1352 100.45 93.2747 101.769 94.5945L123.611 116.436C124.464 117.289 124.934 118.424 124.934 119.63C124.934 120.837 124.464 121.972 123.611 122.825C121.849 124.586 118.983 124.587 117.222 122.825L101.414 107.017C100.094 105.698 97.9547 105.698 96.6349 107.017C95.3155 108.336 95.3155 110.476 96.6349 111.796L110.732 125.893C111.586 126.746 112.056 127.881 112.056 129.088C112.056 130.294 111.586 131.429 110.732 132.282C109.879 133.135 108.745 133.606 107.538 133.606C106.331 133.606 105.197 133.135 104.344 132.282L94.1876 122.126C92.8681 120.807 90.7286 120.807 89.4088 122.126C89.0301 122.505 88.7638 122.952 88.6026 123.427C88.5107 123.329 88.4192 123.23 88.3232 123.134C86.9112 121.722 85.1899 120.734 83.313 120.226C83.7407 119.025 83.9641 117.746 83.9641 116.433C83.9641 113.422 82.7913 110.59 80.6616 108.46C78.4889 106.287 75.6425 105.19 72.7887 105.165C72.7634 102.311 71.6666 99.4652 69.494 97.2926C67.3643 95.1629 64.5327 93.9901 61.5208 93.9901C59.7364 93.9901 58.0169 94.405 56.4677 95.1831C55.9355 93.5508 55.0252 92.0161 53.7304 90.721C51.6007 88.5913 48.7692 87.4188 45.7573 87.4188C42.7453 87.4188 39.9138 88.5916 37.7844 90.721L34.0984 94.4067C33.5709 94.9345 33.1084 95.5024 32.7073 96.1002L25.6201 90.4872L39.8803 55.0162C46.3759 57.7872 53.774 57.9984 60.4308 55.5511C66.3699 53.368 72.7833 53.173 78.7505 54.8919L70.1559 59.646C67.0314 61.3739 64.7713 64.3585 63.9546 67.8344C63.1379 71.3102 63.8326 74.9892 65.8603 77.9278C69.1399 82.6809 75.2175 84.6143 80.6416 82.6309L99.1644 75.8538C101.922 74.8456 105.044 75.5349 107.12 77.6109L134.778 105.268C136.54 107.03 136.54 109.896 134.779 111.657ZM137.724 98.656L111.9 72.8324C107.971 68.9031 102.061 67.5996 96.8431 69.5076L78.3207 76.2843C75.7899 77.2105 72.954 76.3076 71.4233 74.0897C70.463 72.6986 70.1475 71.0261 70.534 69.3802C70.9209 67.7347 71.9484 66.3774 73.4273 65.559L88.135 57.423C95.6267 53.2788 104.532 52.5962 112.568 55.5511C119.225 57.9984 126.623 57.7869 133.119 55.0162L148.382 92.9835L137.724 98.656ZM156.776 95.7427L136.256 44.7025L156.237 34.0215L165.831 92.4851L156.776 95.7427Z" fill="black"/>
</g>
</svg>
