<svg width="122" height="122" viewBox="0 0 122 122" fill="none" xmlns="http://www.w3.org/2000/svg">
<g style="mix-blend-mode:multiply" opacity="0.16">
<path d="M61 0C32.026 0 8.57812 23.4478 8.57812 52.4219V79.1094C8.57812 86.9927 14.9917 93.4062 22.875 93.4062C30.7583 93.4062 37.1719 86.9927 37.1719 79.1094V61.9531C37.1719 54.0698 30.7583 47.6562 22.875 47.6562C21.2745 47.6562 19.7364 47.9246 18.2983 48.4118C20.3271 26.6353 38.7024 9.53125 61 9.53125C83.2976 9.53125 101.673 26.6353 103.702 48.4118C102.264 47.9246 100.726 47.6562 99.125 47.6562C91.2417 47.6562 84.8281 54.0698 84.8281 61.9531V79.1094C84.8281 86.9927 91.2417 93.4062 99.125 93.4062C100.568 93.4062 101.961 93.1894 103.274 92.7901C101.492 98.6558 96.0343 102.938 89.5938 102.938H74.4772C72.5099 97.3908 67.2127 93.4062 61 93.4062C53.1167 93.4062 46.7031 99.8198 46.7031 107.703C46.7031 115.586 53.1167 122 61 122C67.2127 122 72.5097 118.015 74.4772 112.469H89.5938C102.733 112.469 113.422 101.779 113.422 88.6406V52.4219C113.422 23.4478 89.974 0 61 0ZM22.875 57.1875C25.5028 57.1875 27.6406 59.3254 27.6406 61.9531V79.1094C27.6406 81.7371 25.5028 83.875 22.875 83.875C20.2472 83.875 18.1094 81.7371 18.1094 79.1094V61.9531C18.1094 59.3254 20.2472 57.1875 22.875 57.1875ZM61 112.469C58.3722 112.469 56.2344 110.331 56.2344 107.703C56.2344 105.075 58.3722 102.938 61 102.938C63.6278 102.938 65.7656 105.075 65.7656 107.703C65.7656 110.331 63.6278 112.469 61 112.469ZM99.125 83.875C96.4972 83.875 94.3594 81.7371 94.3594 79.1094V61.9531C94.3594 59.3254 96.4972 57.1875 99.125 57.1875C101.753 57.1875 103.891 59.3254 103.891 61.9531V79.1094C103.891 81.7371 101.753 83.875 99.125 83.875Z" fill="black"/>
</g>
</svg>
