<svg width="32" height="32" viewBox="0 0 32 32" fill="none" xmlns="http://www.w3.org/2000/svg">
<g clip-path="url(#clip0_728_3855)">
<path d="M16.1575 0.244141C7.60363 0.244141 0.644531 7.20324 0.644531 15.7572C0.644531 24.3111 7.60363 31.2702 16.1575 31.2702C24.7115 31.2702 31.6706 24.3111 31.6706 15.7572C31.6706 7.20324 24.7115 0.244141 16.1575 0.244141ZM16.1575 29.8158C8.40558 29.8158 2.09888 23.5091 2.09888 15.7572C2.09888 8.00519 8.40558 1.69849 16.1575 1.69849C23.9095 1.69849 30.2162 8.00519 30.2162 15.7572C30.2162 23.5091 23.9095 29.8158 16.1575 29.8158Z" fill="#009A9F"/>
<path d="M16.1611 7.22461C11.4564 7.22461 7.62891 11.0521 7.62891 15.7568C7.62891 20.4614 11.4564 24.2889 16.1611 24.2889C20.8657 24.2889 24.6932 20.4614 24.6932 15.7568C24.6932 11.0521 20.8657 7.22461 16.1611 7.22461ZM16.1611 22.7376C12.312 22.7376 9.18021 19.6059 9.18021 15.7568C9.18021 11.9077 12.312 8.77591 16.1611 8.77591C20.0102 8.77591 23.1419 11.9077 23.1419 15.7568C23.1419 19.6059 20.0102 22.7376 16.1611 22.7376Z" fill="#009A9F"/>
<path d="M20.3614 17.6241C20.233 17.9131 19.9493 18.0846 19.6524 18.085C19.5471 18.085 19.4403 18.0634 19.3377 18.0176L15.8473 16.4663C15.5674 16.3421 15.3867 16.0641 15.3867 15.7577V11.1038C15.3867 10.6754 15.734 10.3281 16.1624 10.3281C16.5907 10.3281 16.938 10.6754 16.938 11.1038V15.2536L19.9679 16.6004C20.3591 16.7742 20.5356 17.2325 20.3614 17.6241Z" fill="#009A9F"/>
</g>
<defs>
<clipPath id="clip0_728_3855">
<rect width="31.026" height="31.026" fill="white" transform="translate(0.644531 0.244141)"/>
</clipPath>
</defs>
</svg>
