<svg width="20" height="21" viewBox="0 0 20 21" fill="none" xmlns="http://www.w3.org/2000/svg">
<path d="M10.0013 2.62659C12.2655 2.62659 12.548 2.63493 13.4363 2.67659C14.3238 2.71826 14.928 2.85743 15.4597 3.06409C16.0097 3.27576 16.473 3.56243 16.9363 4.02493C17.3601 4.44151 17.688 4.94542 17.8972 5.50159C18.103 6.03243 18.243 6.63743 18.2847 7.52493C18.3238 8.41326 18.3347 8.69576 18.3347 10.9599C18.3347 13.2241 18.3263 13.5066 18.2847 14.3949C18.243 15.2824 18.103 15.8866 17.8972 16.4183C17.6886 16.9747 17.3606 17.4788 16.9363 17.8949C16.5196 18.3185 16.0158 18.6464 15.4597 18.8558C14.9288 19.0616 14.3238 19.2016 13.4363 19.2433C12.548 19.2824 12.2655 19.2933 10.0013 19.2933C7.73714 19.2933 7.45464 19.2849 6.56631 19.2433C5.67881 19.2016 5.07464 19.0616 4.54297 18.8558C3.98658 18.647 3.48258 18.319 3.06631 17.8949C2.64248 17.4784 2.31458 16.9745 2.10547 16.4183C1.89881 15.8874 1.75964 15.2824 1.71797 14.3949C1.67881 13.5066 1.66797 13.2241 1.66797 10.9599C1.66797 8.69576 1.67631 8.41326 1.71797 7.52493C1.75964 6.63659 1.89881 6.03326 2.10547 5.50159C2.314 4.94508 2.64198 4.44103 3.06631 4.02493C3.4827 3.60095 3.98666 3.27303 4.54297 3.06409C5.07464 2.85743 5.67797 2.71826 6.56631 2.67659C7.45464 2.63743 7.73714 2.62659 10.0013 2.62659ZM10.0013 6.79326C8.89624 6.79326 7.83643 7.23225 7.05503 8.01365C6.27363 8.79505 5.83464 9.85486 5.83464 10.9599C5.83464 12.065 6.27363 13.1248 7.05503 13.9062C7.83643 14.6876 8.89624 15.1266 10.0013 15.1266C11.1064 15.1266 12.1662 14.6876 12.9476 13.9062C13.729 13.1248 14.168 12.065 14.168 10.9599C14.168 9.85486 13.729 8.79505 12.9476 8.01365C12.1662 7.23225 11.1064 6.79326 10.0013 6.79326ZM15.418 6.58493C15.418 6.30866 15.3082 6.04371 15.1129 5.84836C14.9175 5.65301 14.6526 5.54326 14.3763 5.54326C14.1001 5.54326 13.8351 5.65301 13.6398 5.84836C13.4444 6.04371 13.3347 6.30866 13.3347 6.58493C13.3347 6.86119 13.4444 7.12614 13.6398 7.3215C13.8351 7.51685 14.1001 7.62659 14.3763 7.62659C14.6526 7.62659 14.9175 7.51685 15.1129 7.3215C15.3082 7.12614 15.418 6.86119 15.418 6.58493ZM10.0013 8.45993C10.6644 8.45993 11.3003 8.72332 11.7691 9.19216C12.2379 9.661 12.5013 10.2969 12.5013 10.9599C12.5013 11.623 12.2379 12.2589 11.7691 12.7277C11.3003 13.1965 10.6644 13.4599 10.0013 13.4599C9.33826 13.4599 8.70238 13.1965 8.23354 12.7277C7.7647 12.2589 7.50131 11.623 7.50131 10.9599C7.50131 10.2969 7.7647 9.661 8.23354 9.19216C8.70238 8.72332 9.33826 8.45993 10.0013 8.45993Z" fill="#1B1B1B"/>
</svg>
