<svg width="20" height="21" viewBox="0 0 20 21" fill="none" xmlns="http://www.w3.org/2000/svg">
<path d="M5.78255 5.12612C5.78233 5.56815 5.60652 5.99199 5.2938 6.30439C4.98109 6.6168 4.55708 6.79218 4.11505 6.79196C3.67302 6.79174 3.24919 6.61593 2.93678 6.30321C2.62438 5.9905 2.44899 5.56648 2.44922 5.12446C2.44944 4.68243 2.62524 4.25859 2.93796 3.94619C3.25068 3.63379 3.67469 3.4584 4.11672 3.45862C4.55874 3.45884 4.98258 3.63465 5.29498 3.94737C5.60739 4.26009 5.78277 4.6841 5.78255 5.12612ZM5.83255 8.02612H2.49922V18.4595H5.83255V8.02612ZM11.0992 8.02612H7.78255V18.4595H11.0659V12.9845C11.0659 9.93446 15.0409 9.65112 15.0409 12.9845V18.4595H18.3325V11.8511C18.3325 6.70946 12.4492 6.90112 11.0659 9.42612L11.0992 8.02612Z" fill="#1B1B1B"/>
</svg>
