<svg width="24" height="25" viewBox="0 0 24 25" fill="none" xmlns="http://www.w3.org/2000/svg">
<g clip-path="url(#clip0_728_3931)">
<path d="M12 24.25C11.8 24.25 11.6 24.15 11.4 24.05C11.1 23.85 2 17.65 2 10.25C2 4.75 6.5 0.25 12 0.25C17.5 0.25 22 4.75 22 10.25C22 17.65 12.9 23.85 12.6 24.05C12.4 24.15 12.2 24.25 12 24.25ZM12 2.25C7.6 2.25 4 5.85 4 10.25C4 15.65 10.1 20.65 12 22.05C13.9 20.65 20 15.65 20 10.25C20 5.85 16.4 2.25 12 2.25Z" fill="#C1C1C1"/>
<path d="M12 14.25C9.8 14.25 8 12.45 8 10.25C8 8.05 9.8 6.25 12 6.25C14.2 6.25 16 8.05 16 10.25C16 12.45 14.2 14.25 12 14.25ZM12 8.25C10.9 8.25 10 9.15 10 10.25C10 11.35 10.9 12.25 12 12.25C13.1 12.25 14 11.35 14 10.25C14 9.15 13.1 8.25 12 8.25Z" fill="#C1C1C1"/>
</g>
<defs>
<clipPath id="clip0_728_3931">
<rect width="24" height="24" fill="white" transform="translate(0 0.25)"/>
</clipPath>
</defs>
</svg>
