<svg width="16" height="15" viewBox="0 0 16 15" fill="none" xmlns="http://www.w3.org/2000/svg">
<path d="M7.32034 9.34375L6.15819 10.5C5.9132 10.7438 5.52373 10.7438 5.27245 10.5063C5.20335 10.4375 5.13425 10.375 5.06515 10.3063C4.41812 9.65625 3.8339 8.975 3.31251 8.2625C2.7974 7.55 2.3828 6.8375 2.08127 6.13125C1.78602 5.41875 1.63525 4.7375 1.63525 4.0875C1.63525 3.6625 1.71064 3.25625 1.8614 2.88125C2.01217 2.5 2.25088 2.15 2.58381 1.8375C2.98585 1.44375 3.42558 1.25 3.89044 1.25C4.06633 1.25 4.24223 1.2875 4.39927 1.3625C4.5626 1.4375 4.70708 1.55 4.82016 1.7125L6.27755 3.75625C6.39062 3.9125 6.47229 4.05625 6.52882 4.19375C6.58536 4.325 6.61677 4.45625 6.61677 4.575C6.61677 4.725 6.5728 4.875 6.48485 5.01875C6.40319 5.1625 6.28383 5.3125 6.13307 5.4625L5.65564 5.95625C5.58654 6.025 5.55513 6.10625 5.55513 6.20625C5.55513 6.25625 5.56142 6.3 5.57398 6.35C5.59283 6.4 5.61167 6.4375 5.62424 6.475C5.73731 6.68125 5.93205 6.95 6.20845 7.275C6.49113 7.6 6.79266 7.93125 7.11932 8.2625C7.18214 8.325 7.25124 8.3875 7.31406 8.45C7.56533 8.69375 7.57161 9.09375 7.32034 9.34375Z" fill="white"/>
<path d="M14.1803 11.4562C14.1803 11.6312 14.1489 11.8124 14.0861 11.9874C14.0673 12.0374 14.0484 12.0874 14.0233 12.1374C13.9165 12.3624 13.7783 12.5749 13.5961 12.7749C13.2883 13.1124 12.9491 13.3562 12.5659 13.5124C12.5596 13.5124 12.5533 13.5187 12.547 13.5187C12.1764 13.6687 11.7744 13.7499 11.3409 13.7499C10.7002 13.7499 10.0155 13.5999 9.29304 13.2937C8.57063 12.9874 7.84821 12.5749 7.13208 12.0562C6.88709 11.8749 6.6421 11.6937 6.40967 11.4999L8.46384 9.45615C8.63973 9.5874 8.79677 9.6874 8.92869 9.75615C8.9601 9.76865 8.99779 9.7874 9.04177 9.80615C9.09202 9.8249 9.14228 9.83115 9.19881 9.83115C9.30561 9.83115 9.38727 9.79365 9.45637 9.7249L9.93379 9.25615C10.0908 9.0999 10.2416 8.98115 10.3861 8.90615C10.5306 8.81865 10.6751 8.7749 10.8321 8.7749C10.9515 8.7749 11.0771 8.7999 11.2153 8.85615C11.3535 8.9124 11.498 8.99365 11.655 9.0999L13.7343 10.5687C13.8976 10.6812 14.0107 10.8124 14.0798 10.9687C14.1426 11.1249 14.1803 11.2812 14.1803 11.4562Z" fill="white"/>
</svg>
