<svg width="16" height="15" viewBox="0 0 16 15" fill="none" xmlns="http://www.w3.org/2000/svg">
<path d="M7.32083 9.34375L6.15868 10.5C5.91369 10.7438 5.52421 10.7438 5.27294 10.5063C5.20384 10.4375 5.13474 10.375 5.06564 10.3063C4.41861 9.65625 3.83439 8.975 3.313 8.2625C2.79789 7.55 2.38328 6.8375 2.08175 6.13125C1.78651 5.41875 1.63574 4.7375 1.63574 4.0875C1.63574 3.6625 1.71112 3.25625 1.86189 2.88125C2.01265 2.5 2.25136 2.15 2.5843 1.8375C2.98634 1.44375 3.42607 1.25 3.89093 1.25C4.06682 1.25 4.24271 1.2875 4.39976 1.3625C4.56309 1.4375 4.70757 1.55 4.82065 1.7125L6.27804 3.75625C6.39111 3.9125 6.47277 4.05625 6.52931 4.19375C6.58585 4.325 6.61726 4.45625 6.61726 4.575C6.61726 4.725 6.57328 4.875 6.48534 5.01875C6.40367 5.1625 6.28432 5.3125 6.13355 5.4625L5.65613 5.95625C5.58703 6.025 5.55562 6.10625 5.55562 6.20625C5.55562 6.25625 5.5619 6.3 5.57447 6.35C5.59331 6.4 5.61216 6.4375 5.62472 6.475C5.7378 6.68125 5.93253 6.95 6.20894 7.275C6.49162 7.6 6.79315 7.93125 7.11981 8.2625C7.18262 8.325 7.25172 8.3875 7.31454 8.45C7.56582 8.69375 7.5721 9.09375 7.32083 9.34375Z" fill="#333333"/>
<path d="M14.1798 11.4562C14.1798 11.6312 14.1484 11.8124 14.0856 11.9874C14.0668 12.0374 14.0479 12.0874 14.0228 12.1374C13.916 12.3624 13.7778 12.5749 13.5956 12.7749C13.2878 13.1124 12.9486 13.3562 12.5654 13.5124C12.5591 13.5124 12.5528 13.5187 12.5466 13.5187C12.1759 13.6687 11.7739 13.7499 11.3404 13.7499C10.6997 13.7499 10.015 13.5999 9.29255 13.2937C8.57014 12.9874 7.84773 12.5749 7.13159 12.0562C6.8866 11.8749 6.64161 11.6937 6.40918 11.4999L8.46335 9.45615C8.63924 9.5874 8.79629 9.6874 8.92821 9.75615C8.95961 9.76865 8.99731 9.7874 9.04128 9.80615C9.09153 9.8249 9.14179 9.83115 9.19833 9.83115C9.30512 9.83115 9.38678 9.79365 9.45588 9.7249L9.9333 9.25615C10.0903 9.0999 10.2411 8.98115 10.3856 8.90615C10.5301 8.81865 10.6746 8.7749 10.8316 8.7749C10.951 8.7749 11.0766 8.7999 11.2148 8.85615C11.353 8.9124 11.4975 8.99365 11.6545 9.0999L13.7338 10.5687C13.8972 10.6812 14.0102 10.8124 14.0793 10.9687C14.1421 11.1249 14.1798 11.2812 14.1798 11.4562Z" fill="#333333"/>
</svg>
