<svg width="22" height="22" viewBox="0 0 22 22" fill="none" xmlns="http://www.w3.org/2000/svg">
<g clip-path="url(#clip0_900_1293)">
<path d="M5.72071 6.36622C7.99947 5.59223 7.51105 2.27513 5.07614 2.21875C2.6408 2.27538 2.15327 5.59266 4.43165 6.36622V9.04764L7.39035 12.0063V21.9997H8.67941V11.4724L5.72071 8.51371V6.36622ZM5.07618 3.50781C5.5365 3.50781 5.91102 3.88228 5.91102 4.34261C5.86517 5.45013 4.28706 5.44978 4.24138 4.34261C4.24138 3.88228 4.6159 3.50781 5.07618 3.50781Z" fill="#2E2E27"/>
<path d="M3.50195 14.5029C5.78067 13.7289 5.29224 10.4118 2.85737 10.3555C0.422076 10.4121 -0.0654904 13.7294 2.21288 14.5029V17.1844L4.43192 19.4034V22H5.72098V18.8695L3.50195 16.6504V14.5029ZM2.85742 11.6445C3.31774 11.6445 3.69221 12.019 3.69221 12.4794C3.64636 13.5868 2.06825 13.5865 2.02258 12.4794C2.02258 12.019 2.39709 11.6445 2.85742 11.6445Z" fill="#2E2E27"/>
<path d="M17.5563 6.36622C19.8351 5.59223 19.3466 2.27513 16.9117 2.21875C14.4764 2.27538 13.989 5.59266 16.2673 6.36622V8.51367L13.3086 11.4724V21.9997H14.5977V12.0064L17.5563 9.04769V6.36622ZM16.9118 3.50781C17.3721 3.50781 17.7466 3.88228 17.7466 4.34261C17.7008 5.45009 16.1227 5.44983 16.077 4.34261C16.077 3.88228 16.4515 3.50781 16.9118 3.50781Z" fill="#2E2E27"/>
<path d="M21.2531 12.4794C21.2531 11.3083 20.3003 10.3555 19.1292 10.3555C16.6937 10.4121 16.2065 13.7295 18.4847 14.5029V16.6504L16.2656 18.8695V22H17.5547V19.4034L19.7738 17.1844V14.5029C20.6307 14.2294 21.2531 13.4258 21.2531 12.4794ZM19.1292 13.3142C18.6689 13.3142 18.2944 12.9397 18.2944 12.4794C18.3402 11.3719 19.9184 11.3722 19.964 12.4794C19.9641 12.9397 19.5896 13.3142 19.1292 13.3142Z" fill="#2E2E27"/>
<path d="M10.9941 0C8.55807 0.0569336 8.07179 3.37421 10.3496 4.14747V22H11.6387V4.14747C13.918 3.37309 13.4284 0.0562461 10.9941 0ZM10.9941 2.9587C10.5338 2.9587 10.1593 2.58423 10.1593 2.1239C10.2051 1.01638 11.7833 1.01673 11.8289 2.1239C11.829 2.58423 11.4545 2.9587 10.9941 2.9587Z" fill="#2E2E27"/>
</g>
<defs>
<clipPath id="clip0_900_1293">
<rect width="22" height="22" fill="white"/>
</clipPath>
</defs>
</svg>
