<svg width="32" height="32" viewBox="0 0 32 32" fill="none" xmlns="http://www.w3.org/2000/svg">
<g clip-path="url(#clip0_728_3847)">
<path d="M16.1575 0.636719C7.60363 0.636719 0.644531 7.59582 0.644531 16.1497C0.644531 24.7036 7.60363 31.6627 16.1575 31.6627C24.7115 31.6627 31.6706 24.7036 31.6706 16.1497C31.6706 7.59582 24.7115 0.636719 16.1575 0.636719ZM16.1575 30.2084C8.40558 30.2084 2.09888 23.9017 2.09888 16.1497C2.09888 8.39777 8.40558 2.09106 16.1575 2.09106C23.9095 2.09106 30.2162 8.39777 30.2162 16.1497C30.2162 23.9017 23.9095 30.2084 16.1575 30.2084Z" fill="#009A9F"/>
<path d="M21.5571 8.71806C19.7653 8.12081 17.9038 7.81055 16.1586 7.81055C14.4133 7.81055 12.5518 8.12081 10.76 8.71806C9.00706 9.30755 7.82031 10.9597 7.82031 12.8212V14.1709C7.82031 14.962 8.4641 15.6058 9.25527 15.6058H10.9229V16.0945C10.9229 16.4203 10.76 16.7228 10.4886 16.9012L9.8913 17.3045C9.07687 17.8475 8.59596 18.755 8.59596 19.7245V22.354C8.59596 23.533 9.55001 24.487 10.729 24.487H21.5881C22.7671 24.487 23.7211 23.533 23.7211 22.354V19.7245C23.7211 18.7472 23.2325 17.8397 22.4258 17.3045L21.8208 16.9012C21.5493 16.7228 21.3942 16.4203 21.3942 16.1023V15.6136H23.0618C23.853 15.6136 24.4968 14.9698 24.4968 14.1786V12.829C24.4968 10.9674 23.3178 9.31531 21.5571 8.72581V8.71806ZM21.7743 18.2663C22.2629 18.5921 22.5577 19.135 22.5577 19.7245V22.354C22.5577 22.8892 22.1233 23.3236 21.5881 23.3236H10.729C10.1938 23.3236 9.75944 22.8892 9.75944 22.354V19.7245C9.75944 19.1428 10.0542 18.5921 10.5428 18.2663L11.1323 17.863C11.7296 17.4674 12.0864 16.8081 12.0864 16.0867V15.4197C12.5363 15.1792 12.8465 14.7138 12.8543 14.1709V13.3099C12.8543 13.2091 12.9163 13.116 13.0017 13.0772C13.5213 12.8212 14.615 12.3869 16.1508 12.3714C17.7021 12.3869 18.7958 12.8212 19.3155 13.0772C19.4008 13.116 19.4551 13.2091 19.4551 13.3099V14.1709C19.4628 14.7138 19.7808 15.1792 20.2307 15.4197V16.0867C20.2307 16.8003 20.5875 17.4674 21.177 17.8552L21.7743 18.2586V18.2663ZM23.3333 14.1709C23.3333 14.3183 23.2092 14.4424 23.0618 14.4424H20.8978C20.7504 14.4424 20.6263 14.3183 20.6263 14.1709V13.3099C20.6185 12.767 20.316 12.2783 19.8351 12.0378C19.2301 11.7353 17.9426 11.2234 16.1508 11.2079C14.3668 11.2234 13.087 11.7353 12.482 12.0378C12.0011 12.2783 11.6986 12.767 11.6986 13.3099V14.1709C11.6908 14.3183 11.5667 14.4424 11.4193 14.4424H9.25527C9.10789 14.4424 8.98379 14.3183 8.98379 14.1709V12.8212C8.98379 11.4561 9.84476 10.2538 11.1246 9.81948C12.8 9.26101 14.5374 8.97402 16.1586 8.97402C17.7797 8.97402 19.5171 9.26877 21.1925 9.81948C22.4724 10.2538 23.3333 11.4561 23.3333 12.8212V14.1709ZM16.1586 15.5671C14.553 15.5671 13.2499 16.8701 13.2499 18.4757C13.2499 20.0813 14.553 21.3844 16.1586 21.3844C17.7642 21.3844 19.0672 20.0813 19.0672 18.4757C19.0672 16.8701 17.7642 15.5671 16.1586 15.5671ZM16.1586 20.221C15.1967 20.221 14.4133 19.4375 14.4133 18.4757C14.4133 17.5139 15.1967 16.7305 16.1586 16.7305C17.1204 16.7305 17.9038 17.5139 17.9038 18.4757C17.9038 19.4375 17.1204 20.221 16.1586 20.221Z" fill="#009A9F"/>
</g>
<defs>
<clipPath id="clip0_728_3847">
<rect width="31.026" height="31.026" fill="white" transform="translate(0.644531 0.636719)"/>
</clipPath>
</defs>
</svg>
