<svg width="20" height="21" viewBox="0 0 20 21" fill="none" xmlns="http://www.w3.org/2000/svg">
<path d="M18.4663 5.67433C17.8301 5.95574 17.1554 6.14056 16.4646 6.22266C17.1927 5.78719 17.7377 5.10184 17.9979 4.29433C17.3146 4.701 16.5654 4.986 15.7846 5.14016C15.2601 4.57898 14.5649 4.2068 13.8071 4.08148C13.0492 3.95617 12.2712 4.08474 11.594 4.44721C10.9167 4.80968 10.3782 5.38573 10.0622 6.08582C9.74617 6.78591 9.67026 7.57081 9.84631 8.3185C8.46056 8.24904 7.10492 7.88893 5.86738 7.26155C4.62984 6.63417 3.53808 5.75354 2.66297 4.67683C2.35321 5.20887 2.19043 5.81369 2.19131 6.42933C2.19131 7.63766 2.80631 8.70516 3.74131 9.33016C3.18798 9.31274 2.64683 9.16331 2.16297 8.89433V8.93766C2.16314 9.74241 2.44161 10.5223 2.95118 11.1452C3.46074 11.7681 4.17004 12.1956 4.95881 12.3552C4.44515 12.4944 3.90656 12.5149 3.38381 12.4152C3.60619 13.1079 4.03964 13.7137 4.62347 14.1478C5.20729 14.5819 5.91225 14.8225 6.63964 14.836C5.91671 15.4038 5.08895 15.8235 4.20371 16.0712C3.31846 16.3188 2.39308 16.3896 1.48047 16.2794C3.07355 17.3039 4.92805 17.8478 6.82214 17.846C13.2329 17.846 16.7388 12.5352 16.7388 7.92933C16.7388 7.77933 16.7346 7.62766 16.7279 7.47933C17.4103 6.98614 17.9993 6.37518 18.4671 5.67516L18.4663 5.67433Z" fill="#1B1B1B"/>
</svg>
