<svg width="26" height="26" viewBox="0 0 26 26" fill="none" xmlns="http://www.w3.org/2000/svg">
<g clip-path="url(#clip0_900_1306)">
<path d="M12.9986 14.6847C12.1421 14.6847 11.3048 14.4307 10.5926 13.9548C9.88046 13.479 9.32539 12.8026 8.99762 12.0113C8.66985 11.22 8.58408 10.3493 8.75118 9.5092C8.91828 8.66914 9.33073 7.8975 9.93638 7.29185C10.542 6.6862 11.3137 6.27375 12.1537 6.10665C12.9938 5.93955 13.8645 6.02531 14.6559 6.35309C15.4472 6.68086 16.1235 7.23593 16.5994 7.9481C17.0752 8.66027 17.3292 9.49755 17.3292 10.3541C17.3271 11.502 16.8701 12.6022 16.0584 13.4139C15.2468 14.2256 14.1465 14.6825 12.9986 14.6847ZM12.9986 7.75406C12.4844 7.75406 11.9817 7.90655 11.5541 8.19224C11.1265 8.47793 10.7933 8.884 10.5965 9.35909C10.3997 9.83418 10.3482 10.3569 10.4486 10.8613C10.5489 11.3656 10.7965 11.8289 11.1601 12.1925C11.5237 12.5562 11.987 12.8038 12.4914 12.9041C12.9957 13.0044 13.5185 12.9529 13.9936 12.7562C14.4687 12.5594 14.8747 12.2261 15.1604 11.7985C15.4461 11.371 15.5986 10.8683 15.5986 10.3541C15.5986 9.6645 15.3247 9.00318 14.8371 8.51559C14.3495 8.02799 13.6882 7.75406 12.9986 7.75406Z" fill="#2E2E27"/>
<path d="M21.6686 15.5559C20.9824 15.5559 20.3116 15.3525 19.7411 14.9712C19.1706 14.59 18.7259 14.0482 18.4633 13.4142C18.2007 12.7803 18.132 12.0827 18.2659 11.4097C18.3997 10.7367 18.7302 10.1185 19.2154 9.63335C19.7006 9.14814 20.3188 8.81772 20.9918 8.68385C21.6647 8.54999 22.3623 8.61869 22.9963 8.88128C23.6302 9.14387 24.1721 9.58855 24.5533 10.1591C24.9345 10.7296 25.138 11.4004 25.138 12.0866C25.138 13.0067 24.7724 13.8891 24.1218 14.5398C23.4712 15.1904 22.5887 15.5559 21.6686 15.5559ZM21.6686 10.3559C21.3263 10.3559 20.9917 10.4574 20.7071 10.6476C20.4225 10.8378 20.2007 11.1081 20.0697 11.4243C19.9387 11.7405 19.9044 12.0885 19.9712 12.4242C20.038 12.7599 20.2028 13.0683 20.4449 13.3103C20.6869 13.5523 20.9953 13.7172 21.331 13.7839C21.6667 13.8507 22.0146 13.8164 22.3309 13.6855C22.6471 13.5545 22.9174 13.3326 23.1076 13.048C23.2977 12.7634 23.3992 12.4288 23.3992 12.0866C23.3971 11.6282 23.2141 11.1893 22.89 10.8652C22.5659 10.5411 22.1269 10.3581 21.6686 10.3559Z" fill="#2E2E27"/>
<path d="M4.32875 15.5559C3.64257 15.5559 2.97181 15.3525 2.40127 14.9712C1.83073 14.59 1.38606 14.0482 1.12347 13.4142C0.860878 12.7803 0.792173 12.0827 0.92604 11.4097C1.05991 10.7367 1.39033 10.1185 1.87553 9.63335C2.36073 9.14814 2.97892 8.81772 3.65191 8.68385C4.3249 8.54999 5.02248 8.61869 5.65642 8.88128C6.29037 9.14387 6.83221 9.58855 7.21343 10.1591C7.59465 10.7296 7.79813 11.4004 7.79813 12.0866C7.79813 13.0067 7.4326 13.8891 6.78197 14.5398C6.13134 15.1904 5.24889 15.5559 4.32875 15.5559ZM4.32875 10.3559C3.98647 10.3559 3.65187 10.4574 3.36727 10.6476C3.08267 10.8378 2.86085 11.1081 2.72986 11.4243C2.59888 11.7405 2.5646 12.0885 2.63138 12.4242C2.69816 12.7599 2.86298 13.0683 3.10501 13.3103C3.34705 13.5523 3.65542 13.7172 3.99112 13.7839C4.32683 13.8507 4.6748 13.8164 4.99103 13.6855C5.30726 13.5545 5.57755 13.3326 5.76771 13.048C5.95788 12.7634 6.05938 12.4288 6.05938 12.0866C6.05724 11.6282 5.87422 11.1893 5.55013 10.8652C5.22603 10.5411 4.78708 10.3581 4.32875 10.3559Z" fill="#2E2E27"/>
<path d="M18.1988 21.4582C17.9791 21.4566 17.7682 21.3719 17.6084 21.2212C17.4487 21.0705 17.3519 20.8648 17.3375 20.6457C17.2648 19.9015 16.9173 19.2111 16.3629 18.7093C15.8086 18.2076 15.0871 17.9304 14.3394 17.9319H11.6581C10.9104 17.9304 10.1889 18.2076 9.63459 18.7093C9.08023 19.2111 8.73276 19.9015 8.66001 20.6457C8.61839 20.8579 8.49913 21.0471 8.32552 21.1761C8.15192 21.3052 7.93644 21.3649 7.72118 21.3435C7.50592 21.3222 7.30634 21.2214 7.16142 21.0608C7.01651 20.9002 6.93667 20.6914 6.93751 20.475C7.06215 19.3115 7.61378 18.2356 8.48571 17.4552C9.35765 16.6748 10.488 16.2454 11.6581 16.25H14.3394C15.5171 16.2466 16.6538 16.6828 17.5269 17.4732C18.4 18.2637 18.9467 19.3515 19.06 20.5238C19.0711 20.64 19.0588 20.7572 19.0236 20.8684C18.9885 20.9797 18.9313 21.0828 18.8555 21.1715C18.7796 21.2602 18.6867 21.3327 18.5823 21.3848C18.4778 21.4368 18.364 21.4673 18.2475 21.4744L18.1988 21.4582Z" fill="#2E2E27"/>
<path d="M25.1298 20.8748C24.9102 20.8732 24.6993 20.7885 24.5395 20.6378C24.3797 20.4871 24.2829 20.2815 24.2686 20.0623C24.2279 19.6371 24.0292 19.2426 23.7118 18.9568C23.3944 18.6709 22.9813 18.5145 22.5542 18.5185H20.7667C20.5962 18.5193 20.4266 18.5439 20.2629 18.5916C20.1496 18.6551 20.0235 18.6924 19.8939 18.7007C19.7643 18.7091 19.6345 18.6882 19.514 18.6398C19.3934 18.5914 19.2853 18.5166 19.1975 18.4209C19.1097 18.3252 19.0445 18.211 19.0066 18.0868C18.9687 17.9625 18.9591 17.8314 18.9785 17.703C18.998 17.5746 19.046 17.4521 19.1189 17.3447C19.1919 17.2372 19.288 17.1475 19.4002 17.0821C19.5124 17.0167 19.6379 16.9772 19.7673 16.9666C20.0918 16.8706 20.4283 16.8214 20.7667 16.8204H22.5542C23.4122 16.8143 24.2415 17.1294 24.879 17.7038C25.5165 18.2781 25.916 19.0701 25.9992 19.9241C26.0103 20.0403 25.9979 20.1575 25.9628 20.2688C25.9277 20.3801 25.8705 20.4832 25.7947 20.5719C25.7188 20.6606 25.6259 20.7331 25.5215 20.7851C25.417 20.8372 25.3032 20.8677 25.1867 20.8748H25.1298Z" fill="#2E2E27"/>
<path d="M0.869427 20.8747H0.812552C0.696072 20.8676 0.582215 20.8371 0.477765 20.7851C0.373316 20.7331 0.280413 20.6605 0.204593 20.5718C0.128774 20.4831 0.0715891 20.38 0.0364482 20.2688C0.00130723 20.1575 -0.0110708 20.0403 5.16986e-05 19.9241C0.0830736 19.0715 0.481508 18.2806 1.11727 17.7065C1.75304 17.1323 2.5803 16.8163 3.43693 16.8204H5.22443C5.56281 16.8213 5.89932 16.8706 6.2238 16.9666C6.35325 16.9772 6.47869 17.0166 6.59089 17.082C6.70309 17.1475 6.79921 17.2372 6.87218 17.3446C6.94515 17.4521 6.99313 17.5745 7.01257 17.7029C7.03202 17.8313 7.02244 17.9625 6.98455 18.0867C6.94666 18.2109 6.88142 18.3251 6.79361 18.4208C6.70581 18.5165 6.59768 18.5913 6.47717 18.6398C6.35665 18.6882 6.22682 18.709 6.09721 18.7007C5.96759 18.6923 5.8415 18.6551 5.72818 18.5916C5.56449 18.5439 5.39493 18.5192 5.22443 18.5185H3.43693C3.0098 18.5145 2.59672 18.6709 2.2793 18.9567C1.96188 19.2425 1.76321 19.637 1.72255 20.0622C1.7083 20.28 1.61265 20.4845 1.4546 20.635C1.29655 20.7855 1.08766 20.8711 0.869427 20.8747Z" fill="#2E2E27"/>
</g>
<defs>
<clipPath id="clip0_900_1306">
<rect width="26" height="26" fill="white"/>
</clipPath>
</defs>
</svg>
