<svg width="146" height="112" viewBox="0 0 146 112" fill="none" xmlns="http://www.w3.org/2000/svg">
<g style="mix-blend-mode:multiply" opacity="0.16" clip-path="url(#clip0_728_6126)">
<path d="M65.5593 37.4961C59.786 37.4961 55.0898 42.1927 55.0898 47.9655V63.2062C55.0898 68.979 59.786 73.6756 65.5593 73.6756H80.0644C85.8377 73.6756 90.5339 68.979 90.5339 63.2062V47.9655C90.5339 42.1927 85.8377 37.4961 80.0644 37.4961H65.5593ZM81.9792 47.9655V63.2062C81.9792 64.2612 81.1204 65.1201 80.0644 65.1201H65.5593C64.5033 65.1201 63.6445 64.2612 63.6445 63.2062V47.9655C63.6445 46.9094 64.5033 46.0505 65.5593 46.0505H80.0644C81.1204 46.0505 81.9792 46.9094 81.9792 47.9655Z" fill="black"/>
<path d="M97.0264 84.7442C95.8022 80.2514 91.7142 77.1133 87.0849 77.1133H58.5347C53.9065 77.1133 49.8185 80.2514 48.5944 84.7442L44.8851 98.3596C44.0241 101.522 44.6679 104.826 46.654 107.425C48.62 110 51.5985 111.476 54.8255 111.476H90.7953C94.0222 111.476 97.0008 110 98.9668 107.425C100.953 104.826 101.598 101.522 100.736 98.3596L97.0264 84.7442ZM92.1687 102.232C91.9726 102.489 91.5327 102.92 90.7953 102.92H54.8255C54.0881 102.92 53.6481 102.489 53.4521 102.232C53.2438 101.959 52.9263 101.386 53.139 100.609L56.8483 86.9934C57.0599 86.2136 57.7539 85.6688 58.5359 85.6688H87.0849C87.8657 85.6688 88.5608 86.2136 88.7724 86.9934L92.4817 100.609C92.6944 101.386 92.377 101.96 92.1687 102.232Z" fill="black"/>
<path d="M17.1555 71.4799H26.2081C31.4412 71.4799 35.6996 67.2211 35.6996 61.9864V52.4037C35.6996 47.169 31.4412 42.9102 26.2081 42.9102H17.1555C11.9214 42.9102 7.66406 47.169 7.66406 52.4037V61.9864C7.66406 67.2211 11.9214 71.4799 17.1555 71.4799ZM16.2176 52.4037C16.2176 51.8868 16.6387 51.4657 17.1555 51.4657H26.2081C26.725 51.4657 27.146 51.8868 27.146 52.4037V61.9864C27.146 62.5044 26.725 62.9255 26.2081 62.9255H17.1555C16.6387 62.9255 16.2176 62.5044 16.2176 61.9864V52.4037Z" fill="black"/>
<path d="M40.364 81.0333C39.3381 77.2669 35.9085 74.6367 32.0243 74.6367H11.3394C7.45522 74.6367 4.02667 77.2669 3.00077 81.0333L0.312952 90.899C-0.408849 93.5469 0.131388 96.3141 1.79443 98.492C3.4441 100.651 5.94367 101.89 8.65154 101.89H34.7121C37.4211 101.89 39.9196 100.651 41.5693 98.492C43.2334 96.3141 43.7737 93.5469 43.0519 90.899L40.364 81.0333ZM34.7121 93.3353L8.63038 93.3331C8.62927 93.3331 8.53013 93.2774 8.56577 93.1481L11.2536 83.2825C11.2714 83.2168 11.316 83.1923 11.3394 83.1923H32.0243C32.0477 83.1923 32.0923 83.2168 32.1101 83.2825L34.7979 93.1481C34.8336 93.2774 34.7355 93.3331 34.7121 93.3353Z" fill="black"/>
<path d="M110.301 52.4037V61.9864C110.301 67.2211 114.559 71.4799 119.793 71.4799H128.844C134.078 71.4799 138.336 67.2211 138.336 61.9864V52.4037C138.336 47.169 134.078 42.9102 128.844 42.9102H119.793C114.559 42.9102 110.301 47.169 110.301 52.4037ZM129.783 52.4037V61.9864C129.783 62.5044 129.362 62.9255 128.844 62.9255H119.793C119.275 62.9255 118.854 62.5044 118.854 61.9864V52.4037C118.854 51.8868 119.275 51.4657 119.793 51.4657H128.844C129.362 51.4657 129.783 51.8868 129.783 52.4037Z" fill="black"/>
<path d="M145.685 90.899L142.998 81.0333C141.971 77.2669 138.541 74.6367 134.658 74.6367H113.972C110.089 74.6367 106.659 77.2669 105.634 81.0344L102.946 90.899C102.224 93.5469 102.764 96.3141 104.427 98.492C106.077 100.652 108.576 101.891 111.284 101.891H137.346C140.054 101.891 142.554 100.652 144.203 98.492C145.866 96.3141 146.406 93.5469 145.685 90.899ZM137.346 93.3353L111.263 93.3331C111.262 93.3331 111.164 93.2774 111.2 93.1481L113.886 83.2825C113.904 83.2168 113.949 83.1923 113.972 83.1923H134.658C134.682 83.1923 134.726 83.2168 134.744 83.2825L137.432 93.1481C137.466 93.2774 137.368 93.3331 137.346 93.3353Z" fill="black"/>
<path d="M24.0137 37.8655C26.2983 38.9417 28.9683 37.342 29.6912 35.779C33.4383 27.6757 39.3898 20.8068 46.9019 15.9141C54.6067 10.8955 63.5669 8.24305 72.8144 8.24305C81.9951 8.24305 90.9006 10.8598 98.5698 15.8127C106.044 20.6386 111.994 27.4251 115.778 35.4392C116.786 37.5759 119.336 38.4894 121.473 37.4801C123.608 36.4719 124.522 33.922 123.513 31.7853C119.048 22.3274 112.027 14.3177 103.21 8.62516C94.1554 2.77775 83.6447 -0.3125 72.8144 -0.3125C61.906 -0.3125 51.3308 2.81897 42.2336 8.74436C33.3726 14.516 26.3506 22.6226 21.9274 32.1875C20.936 34.3319 21.8694 36.8741 24.0137 37.8655Z" fill="black"/>
</g>
<defs>
<clipPath id="clip0_728_6126">
<rect width="146" height="112" fill="white"/>
</clipPath>
</defs>
</svg>
